<?xml version="1.0" encoding="utf-8"?>
<!-- Generator: Adobe Illustrator 21.1.0, SVG Export Plug-In . SVG Version: 6.00 Build 0)  -->
<svg version="1.1" id="Ebene_1" xmlns="https://www.w3.org/2000/svg" xmlns:xlink="https://www.w3.org/1999/xlink" x="0px" y="0px"
	 viewBox="0 0 111 111.7" style="enable-background:new 0 0 111 111.7;" xml:space="preserve">
<style type="text/css">
	.st0{fill:#94C11E;}
</style>
<title>zahnarztpraxis-wilmersdorfer-arcaden-engin-demirer-logo</title>
<path class="st0" d="M55.2,81.9l7.6-0.6c7.6-0.6,13.1-1,16.9-1.2c0-1.7,0-3.5-0.1-5.3c-4.3,0.4-9.3,0.7-14.4,0.9
	c-4.3,0.2-7.5,0.3-10,0.4C55.2,78.1,55.2,80.1,55.2,81.9 M15.1,86.8c1.7-0.2,12.3-1,12.5-1.3c0-0.2-4.6,0-12.4,0.6l-3.5,0.3
	l-0.2,0.8C12.6,87,13.9,86.9,15.1,86.8z M15.3,85.2c2.3-12.6,5.5-26,10.6-37.8c3-7.5,7.1-14.5,12-20.9c4.3-5.8,9.4-8.7,14.3-11.1
	c3.9-1.9,8.3-2.2,13.3-1.1C74,16.1,80.8,24,84.2,29c6.1,9,10.9,18.8,14.3,29.2c6.7,19.6,8,30.5,10.4,42.9c0,0-5.2-4.8-8.3-0.9
	c-0.2-8-0.9-29.4-7-46.8c-4.8-13.5-7.9-19.2-11.8-24.5c-3.7-5-6.8-8.1-13.7-9.8c-3.1-0.9-6.5-0.7-9.4,0.6c-4.2,1.7-7.8,4.6-10.5,8.3
	c-5.7,7.5-10.3,14.9-13.4,25.6c-3,10-5.2,20.2-6.5,30.5c7.9-0.7,16.2-1.3,23.3-1.9c0-1.9,0-3.9,0.1-6c-3.7,0.2-6.2,0.3-10.9,0.7
	c-0.7-0.4-0.1-0.8,3.4-1.3c-1.8,0.1-3.5,0.1-5.3,0c0-0.2,5.1-0.5,12.8-0.9c0-1.8,0.1-3.5,0.1-5.3C52.5,49.3,52.7,0,53.5,0
	s1.2,49.5,1.6,69.4c0,1.8,0.1,3.5,0.1,5.2c3-0.2,6.3-0.3,9.8-0.4c5.4-0.2,10.4-0.4,14.6-0.5c0-1.6,0-3.2,0-4.8
	c0-17.8,0.5-24.6,1.1-24.6s1.1,6.7,1.1,24.6c0,1.6,0,3.2,0,4.8c2-0.1,3.7-0.1,5.1-0.1c3.9-0.2,6.1-0.3,6.1-0.2s-4.6,0.8-11.3,1.4
	c0,1.9,0,3.7-0.1,5.4c1.7-0.1,3.4-0.1,5.2,0c1.6-0.1,5.6-0.2,8.3-0.1c-0.9-8.9-2.8-17.7-5.6-26.2c-4.2-11.9-7.8-19.6-12-24.9
	c-1.3-1.7-2.2-2.8-3.1-3.9c-1.2-1.3-2.5-2.5-3.9-3.6l0.1-0.3c1.7,0.7,3.3,1.7,4.6,3c0.7,0.6,1.3,1.3,1.9,2c0.6,0.8,1.2,1.6,1.9,2.4
	c4.2,5.4,7.1,11.3,12.1,24.9c3,8.6,4.9,17.5,5.8,26.5c0.4,0,0.8,0.1,1.1,0.2c0,0.1-0.4,0.2-1.1,0.3c0.9,8.6,1.1,16,1.1,20.1
	l-1.6,0.4v-0.2c0-4-0.2-11.5-1.2-20.1c-2.8,0.4-7.7,1-13.6,1.6c-0.2,11.2-0.6,18.9-1,18.9s-0.8-7.7-1-18.8c-4,0.4-8.4,0.8-13,1.1
	l-11.5,0.9c-0.3,11.5-1,19.3-1.7,19.3c-0.2,0,0-1.8-0.3-3.7c-0.2-0.9-1.2,1.3-1.2,1.3c0-2.8,0.1-6,0-7.1c-0.2-2.7-0.2-5.9-0.2-9.5
	c-7.5,0.6-15.9,1.3-23.5,1.9c-0.7,6.3-1.2,12.3-1.4,18.1c0,0-14.7,15.3-14.5,0.8c0.7-5.6,1.6-11.6,2.6-17.8l-3.5,0.3
	c-1.2,6.3-2,12.4-2.7,18.1c-0.2,3.6,1.3,5.1,2.6,5.7H9.2C8,110.8,7.3,109,7.3,106C8,100.3,8.9,94.3,10,88c-2.8,0.2-4.9,0.3-6.2,0.4
	c-0.3-0.3,2.5-0.7,6.3-1l0.2-0.8C4.9,87.1,0.4,87.4,0,86.8c-0.1-0.1,4.1-0.5,10.4-1.1c2.5-12.7,6.1-26.2,11.4-38.2
	c4.7-10.5,7.8-15.1,12.6-21.3s8-7.5,13.3-10l0.3,0.2c-1.4,0.8-2.5,1.4-3.5,2c-1,0.6-1.9,1.2-2.8,1.9c-2.2,1.8-4.2,3.8-5.9,6.1
	c-4.7,5.9-7.8,10.5-12.5,21c-5.3,12-8.9,25.3-11.4,38C13,85.4,14.1,85.3,15.3,85.2L15.3,85.2z"/>
</svg>
