<?xml version="1.0" encoding="utf-8"?>
<!-- Generator: Adobe Illustrator 21.1.0, SVG Export Plug-In . SVG Version: 6.00 Build 0)  -->
<svg version="1.1" id="Ebene_1" xmlns="http://www.w3.org/2000/svg" xmlns:xlink="http://www.w3.org/1999/xlink" x="0px" y="0px"
	 viewBox="0 0 110.2 99.1" style="enable-background:new 0 0 110.2 99.1;" xml:space="preserve">
<style type="text/css">
	.st0{fill:#FFFFFF;}
	.st1{fill:#1D1D1B;}
</style>
<g>
	<g>
		<path class="st0" d="M16.2,99c-0.5,0-0.9-0.1-1.3-0.3c-1.8-0.7-2.6-2.9-2.5-6.5c0.8-6.6,1.7-12.1,2.5-17.3
			c-0.9,0.1-1.7,0.1-2.5,0.2c-1,5.7-1.9,11.6-2.6,17.7c-0.1,2.6,0.6,4.4,2.3,5.2l1.9,0.9H9.6l-0.1-0.1c-1.4-1-2.1-3-2.1-6.1
			C8,86.8,8.9,81,9.9,75.3c-2.6,0.2-4.5,0.3-5.6,0.3l-0.2,0l-0.4-0.4l0.1-0.3c0.1-0.2,0.2-0.4,1.5-0.7c-3.7,0.3-4.9,0.1-5.3-0.4
			l-0.2-0.2L0,73.3C0.2,73,0.2,73,10.5,72c2.8-14.5,6.7-27.3,11.4-38c4.6-10.3,7.6-14.9,12.6-21.4C39.3,6.6,42.8,5,48,2.6l0.3-0.1
			l1,0.9l-1.3,0.7c-1.1,0.6-2,1.1-2.8,1.6c-1.1,0.7-2,1.2-2.8,1.8c-1.9,1.4-3.6,3.2-5.8,6c-5,6.4-8,10.9-12.5,21.1
			c-4.7,10.5-8.4,23-11.2,37.2c0.3,0,0.6-0.1,1-0.1c0.5,0,1-0.1,1.5-0.1C18.1,56.5,21.6,44.2,26,34c4.6-10.7,7.8-15.2,12.1-21
			c4.4-5.9,9.6-8.9,14.5-11.2c4-1.9,8.4-2.3,13.6-1.1c9.3,2,16.3,11.1,18.9,14.9c4.1,6,9.4,14.8,14.4,29.3
			c5.5,16.2,7.4,26.5,9.2,36.4c0.4,2.2,0.8,4.3,1.2,6.5l0.3,1.5l-1.1-1c0,0-2.7-2.5-5.2-2.3c-0.9,0.1-1.7,0.5-2.4,1.3l-0.9,1.1
			l0-1.4c-0.5-19.1-2.8-34.8-7-46.7C88.8,26.7,85.7,21.1,82,16c-3.7-5.1-6.8-7.9-13.4-9.6c-3.5-0.9-5.9-0.7-9.1,0.6
			c-4.1,1.7-7.3,4.2-10.2,8.1C43.5,22.7,39,29.9,35.9,40.5c-3,10-5.1,20-6.4,30.5l-1-0.1c1.3-10.5,3.5-20.6,6.5-30.6
			c3.2-10.7,7.7-18.1,13.5-25.7c3.1-4.1,6.4-6.7,10.6-8.4c3.5-1.4,6-1.6,9.7-0.7c6.9,1.7,10.1,4.7,14,10c3.8,5.2,7,10.9,11.8,24.6
			c4.1,11.8,6.5,27.2,7,45.8c0.6-0.5,1.4-0.8,2.2-0.8c1.9-0.1,3.7,0.9,4.9,1.7c-0.3-1.7-0.6-3.5-1-5.2c-1.8-9.9-3.7-20.2-9.1-36.3
			c-4.9-14.4-10.2-23.1-14.3-29.1c-2-2.9-9.1-12.5-18.3-14.5c-5-1.1-9.2-0.7-13,1.1C48.2,5,43.2,7.9,38.9,13.6
			c-4.3,5.7-7.4,10.3-12,20.8C22.5,44.6,19.1,57,16.3,72.1l0,0.1c11.7-0.8,12-0.5,12.1-0.3l0.2,0.2l-0.1,0.4
			c-0.2,0.4-0.3,0.5-9.6,1.3C17.7,73.9,16.6,74,16,74l-0.1,0.5c-0.9,5.4-1.8,11.1-2.6,17.8c-0.1,3.1,0.6,5,1.9,5.5
			c3,1.2,9.2-4.2,11.6-6.6c0.2-6,0.7-12,1.4-18l1,0.1c-0.7,6-1.2,12.1-1.4,18.1l0,0.2l-0.1,0.1C27.3,92.2,20.7,99,16.2,99z M9.9,98
			h0.4c-1-1-1.7-2.6-1.6-5.3c0.7-6.2,1.6-12.3,2.7-18.1l0-0.1h0l0.4-2.2c2.8-14.6,6.7-27.4,11.4-38.1c4.5-10.2,7.6-14.8,12.6-21.3
			c1-1.3,1.9-2.4,2.8-3.3c-1,1-2.1,2.2-3.3,3.7c-5,6.4-8,11-12.5,21.1C18.1,45.2,14.3,58,11.4,72.6L11,74.9
			c-1.1,5.8-2,11.8-2.7,17.9C8.3,95.4,8.9,97.1,9.9,98z M96.4,88.3l0-0.9c0-4.6-0.3-11.9-1.2-20l1-0.1c0.9,7.9,1.1,15,1.2,19.7
			l0.6-0.2c0-3.2-0.1-10.9-1.1-19.7l0-0.4c-1.1-10.2-3.1-19-5.8-26.4c-5-13.7-7.8-19.5-12-24.8l-0.3-0.4c-0.6-0.7-1.1-1.4-1.6-2.1
			c-0.7-0.8-1.3-1.5-1.8-2c-0.4-0.4-0.9-0.8-1.3-1.2c0.5,0.4,0.9,0.9,1.3,1.3c0.8,0.9,1.5,1.8,2.5,3.1l0.7,0.9
			c4.1,5.2,7.8,13,12.1,25.1c2.6,7.3,4.4,16.1,5.6,26.3l-1,0.1c-1.2-10.1-3-18.9-5.5-26.1c-4.2-12-7.9-19.6-11.9-24.8L77.1,15
			c-1-1.2-1.7-2.1-2.4-3c-1-1.1-2-2-3.8-3.5l-0.2-0.2l0.2-1.2l0.6,0.2c1.8,0.7,3.3,1.6,4.7,3.1c0.6,0.6,1.2,1.3,1.9,2.1
			c0.5,0.6,1.1,1.3,1.6,2.1l0.3,0.4c4.2,5.4,7.1,11.3,12.1,25c2.7,7.3,4.6,16.1,5.8,26.2c0.9,0,1.1,0.1,1.2,0.5c0,0.4-0.3,0.6-1,0.7
			c0.9,9,1,16.8,1,19.7l0,0.4L96.4,88.3z"/>
	</g>
</g>
</svg>
