<?xml version="1.0" encoding="utf-8"?>
<!-- Generator: Adobe Illustrator 21.1.0, SVG Export Plug-In . SVG Version: 6.00 Build 0)  -->
<svg version="1.1" id="Ebene_1" xmlns="http://www.w3.org/2000/svg" xmlns:xlink="http://www.w3.org/1999/xlink" x="0px" y="0px"
	 viewBox="0 0 130 130" style="enable-background:new 0 0 130 130;" xml:space="preserve">
<style type="text/css">
	.st0{fill:#FFFFFF;}
	.st1{fill:#1D1D1B;}
</style>
<circle class="st0" cx="65" cy="65" r="65"/>
<g>
	<g>
		<path class="st1" d="M34.5,80.8c-0.4,0-0.7-0.2-0.8-0.6c-0.1-0.4,0.1-0.9,0.5-1.1l16.1-5.2c0.4-0.1,0.9,0.1,1.1,0.5
			c0.1,0.4-0.1,0.9-0.5,1.1l-16.1,5.2C34.6,80.8,34.6,80.8,34.5,80.8z"/>
	</g>
	<g>
		<path class="st1" d="M64.9,98.4c-0.1,0-0.3,0-0.4-0.1L33.7,81c-0.2-0.1-0.4-0.4-0.4-0.7L30,40.3c0-0.4,0.2-0.8,0.7-0.9l33.9-7.8
			c0.1,0,0.3,0,0.4,0l34.4,7.8c0.4,0.1,0.7,0.5,0.7,0.9L96.2,82c0,0.3-0.2,0.5-0.5,0.7L65.3,98.3C65.2,98.4,65,98.4,64.9,98.4z
			 M35,79.8l30,16.8l29.7-15.2l3.6-40.5l-33.5-7.6l-33,7.6L35,79.8z"/>
	</g>
	<g>
		<path class="st1" d="M56.8,93.2c-0.4,0-0.8-0.1-1.2-0.3c-2.6-1.2-4.3-5.9-5.3-15.2c-0.2-1.5-0.1-7.2,0-11c0-1.3,0-2.3,0-2.8
			c0-0.6-0.4-1.6-1-2.8c-1.1-2.5-2.7-6.2-2.7-10.9c0-6,5.4-11.4,9.6-11.4c1.2,0,2.6,0.5,4.1,1.1c1.4,0.6,2.9,1.1,4,1.1
			c1.1,0,2.6-0.6,4-1.1c1.5-0.6,2.9-1.1,4.1-1.1c4.3,0,9.6,5.4,9.6,11.4c0,4.7-1.6,8.5-2.7,10.9c-0.5,1.2-1,2.3-1,2.8
			c0,0.5,0,1.6,0,2.8c0.1,3.8,0.1,9.6,0,11c-1,9.3-2.7,14-5.3,15.2c-1.1,0.5-1.9,0.3-2.4-0.1c-2.1-1.4-2.2-6.5-2-11.5
			c0-0.6,0-1,0-1.4c0-5.8-2.6-9-4.4-9S60,74.1,60,80c0,0.3,0,0.8,0,1.4c0.1,5.1,0.1,10.2-2,11.5C57.7,93.1,57.3,93.2,56.8,93.2z
			 M56.3,40.4c-3.5,0-8,4.7-8,9.7c0,4.4,1.5,7.8,2.5,10.3c0.6,1.5,1.1,2.6,1.1,3.5c0,0.5,0,1.6,0,2.8c0,3.5-0.1,9.5,0,10.8
			c0.9,8.3,2.4,13,4.3,13.9c0.5,0.2,0.7,0.1,0.8,0.1c1.5-1,1.3-7.6,1.3-10.1c0-0.6,0-1.1,0-1.4c0-6.6,3.2-10.7,6.1-10.7
			c2.9,0,6.1,4.1,6.1,10.7c0,0.4,0,0.8,0,1.4c-0.1,2.5-0.2,9.1,1.3,10.1c0.1,0,0.3,0.2,0.8-0.1c3-1.4,4-10.8,4.3-13.9
			c0.1-1.3,0.1-7.3,0-10.8c0-1.3,0-2.3,0-2.8c0-0.9,0.5-2,1.1-3.5c1.1-2.5,2.5-5.9,2.5-10.3c0-5-4.5-9.7-8-9.7c-0.8,0-2.2,0.5-3.5,1
			c-1.6,0.6-3.2,1.2-4.6,1.2c-1.4,0-3-0.6-4.6-1.2C58.5,40.9,57.2,40.4,56.3,40.4z"/>
	</g>
	<g>
		<path class="st1" d="M64.9,53.9c-0.1,0-0.2,0-0.3-0.1L30.8,41.1c-0.4-0.2-0.7-0.7-0.5-1.1c0.2-0.4,0.7-0.7,1.1-0.5l33.5,12.6
			l33.9-12.6c0.4-0.2,0.9,0.1,1.1,0.5c0.2,0.4-0.1,0.9-0.5,1.1L65.2,53.8C65.1,53.8,65,53.9,64.9,53.9z"/>
	</g>
	<g>
		<path class="st1" d="M64.7,98.2c-0.5,0-0.8-0.4-0.8-0.8V53.5c0-0.5,0.4-0.8,0.8-0.8c0.5,0,0.8,0.4,0.8,0.8v43.9
			C65.6,97.8,65.2,98.2,64.7,98.2z"/>
	</g>
	<g>
		<path class="st1" d="M64.7,42.3c-0.5,0-0.8-0.4-0.8-0.8v-8.1c0-0.5,0.4-0.8,0.8-0.8c0.5,0,0.8,0.4,0.8,0.8v8.1
			C65.6,42,65.2,42.3,64.7,42.3z"/>
	</g>
	<g>
		<path class="st1" d="M94.8,82.4c-0.1,0-0.2,0-0.3-0.1l-16.7-6.4c-0.4-0.2-0.7-0.7-0.5-1.1c0.2-0.4,0.7-0.7,1.1-0.5l16.7,6.4
			c0.4,0.2,0.7,0.7,0.5,1.1C95.4,82.2,95.1,82.4,94.8,82.4z"/>
	</g>
</g>
</svg>
