<?xml version="1.0" encoding="utf-8"?>
<!-- Generator: Adobe Illustrator 21.1.0, SVG Export Plug-In . SVG Version: 6.00 Build 0)  -->
<svg version="1.1" id="Ebene_1" xmlns="https://www.w3.org/2000/svg" xmlns:xlink="https://www.w3.org/1999/xlink" x="0px" y="0px"
	 viewBox="0 0 130 130" style="enable-background:new 0 0 130 130;" xml:space="preserve">
<style type="text/css">
	.st0{fill:#FFFFFF;}
	.st1{fill:#1D1D1B;}
</style>
<circle class="st0" cx="65" cy="65" r="65"/>
<g>
	<g>
		<path class="st1" d="M63.2,78c-6.8,0-12.4-5.5-12.4-12.4c0-6.8,5.5-12.4,12.4-12.4c6.8,0,12.4,5.5,12.4,12.4
			C75.6,72.5,70,78,63.2,78z M63.2,54.7c-6.1,0-11,4.9-11,11c0,6.1,4.9,11,11,11c6.1,0,11-4.9,11-11C74.2,59.6,69.3,54.7,63.2,54.7z
			"/>
	</g>
	<g>
		<path class="st1" d="M58.7,63.5c0.4,0,0.7-0.3,0.7-0.7c0-0.4-0.3-0.7-0.7-0.7c-0.4,0-0.7,0.3-0.7,0.7
			C57.9,63.2,58.3,63.5,58.7,63.5"/>
	</g>
	<g>
		<path class="st1" d="M67.2,63.7c0.4,0,0.7-0.3,0.7-0.7c0-0.4-0.3-0.7-0.7-0.7c-0.4,0-0.7,0.3-0.7,0.7
			C66.5,63.3,66.8,63.7,67.2,63.7"/>
	</g>
	<g>
		<path class="st1" d="M63.2,73.2c-5,0-7-4.2-7.1-4.3c-0.2-0.3,0-0.7,0.3-0.9c0.3-0.2,0.7,0,0.9,0.3l0,0c0.1,0.2,1.8,3.7,6.1,3.5
			c4.6-0.2,5.6-3.5,5.7-3.7c0.1-0.4,0.5-0.6,0.8-0.5c0.4,0.1,0.6,0.5,0.5,0.8c0,0-1.4,4.4-6.9,4.7C63.4,73.2,63.3,73.2,63.2,73.2z"
			/>
	</g>
	<g>
		<path class="st1" d="M74.5,64.1c0,0-4-1.7-8.8-4.3c-3.8-2.1-6-4.8-6.1-4.9l1.1-0.9c0,0,2.2,2.6,5.7,4.6c4.7,2.6,8.6,4.2,8.6,4.2
			L74.5,64.1z"/>
	</g>
	<g>
		<path class="st1" d="M45.5,67.7c-0.2,0-0.5-0.1-0.6-0.4c-1.8-3.5,0-7.8,0-8c0.1-0.2,0.2-0.3,0.4-0.4c0.2-0.1,0.4,0,0.5,0l5.3,2.9
			c0.3,0.2,0.5,0.6,0.3,0.9c-0.2,0.3-0.6,0.5-0.9,0.3L46,60.5c-0.4,1.2-0.9,3.5-0.1,5.6c1.1-0.5,2.2-1,3-1.4
			c0.7-0.3,1.3-0.6,1.7-0.8c0.4-0.1,0.7,0,0.9,0.4c0.1,0.4-0.1,0.7-0.4,0.9c-0.4,0.1-1,0.4-1.6,0.7c-1,0.5-2.3,1.1-3.7,1.7
			C45.7,67.6,45.6,67.7,45.5,67.7z"/>
	</g>
	<g>
		<path class="st1" d="M81,67.7c-0.1,0-0.2,0-0.2,0C79.3,67.1,78,66.5,77,66c-0.6-0.3-1.2-0.6-1.6-0.7c-0.4-0.1-0.5-0.5-0.4-0.9
			c0.1-0.4,0.5-0.5,0.9-0.4c0.5,0.2,1,0.5,1.7,0.8c0.8,0.4,1.9,0.9,3,1.4c0.8-2.1,0.3-4.4-0.1-5.6L75.9,63c-0.3,0.2-0.7,0.1-0.9-0.3
			c-0.2-0.3-0.1-0.7,0.3-0.9l5.3-2.9c0.2-0.1,0.4-0.1,0.6,0c0.2,0.1,0.3,0.2,0.4,0.4c0.1,0.2,1.9,4.5,0,8
			C81.5,67.5,81.2,67.7,81,67.7z"/>
	</g>
	<g>
		<path class="st1" d="M52,63.2L51.4,62c0,0,3.9-1.9,5.7-3.8c1.7-2,2.3-4.1,2.3-4.1l1.3,0.3c0,0.1-0.6,2.4-2.6,4.6
			C56.2,61.2,52.2,63.1,52,63.2z"/>
	</g>
	<g>
		<path class="st1" d="M77.6,94.6c-0.4,0-0.7-0.3-0.7-0.7l-0.1-2.3C76.3,84.6,70.2,79,63,79c-7.3,0-13.4,5.6-13.9,12.7L49,93.9
			c0,0.4-0.3,0.7-0.7,0.7c-0.4,0-0.7-0.3-0.7-0.7l0.1-2.3c0.6-7.9,7.3-14,15.2-14c8,0,14.7,6.1,15.2,14l0.1,2.3
			C78.3,94.3,78,94.6,77.6,94.6C77.6,94.6,77.6,94.6,77.6,94.6z"/>
	</g>
	<g>
		<path class="st1" d="M62.8,83.2c-4.4,0-7-1.7-7.7-2.2l0.8-1.1c1.2,0.9,3.7,2,6.9,2c2.8,0,5.5-0.8,7.1-2l0.8,1.1
			C68.9,82.3,65.9,83.2,62.8,83.2z"/>
	</g>
	<g>
		<rect x="50.3" y="84.5" class="st1" width="25.4" height="1.4"/>
	</g>
	<g>
		<rect x="48.5" y="88.4" class="st1" width="28.6" height="1.4"/>
	</g>
	<g>
		<rect x="48.5" y="92.2" class="st1" width="29.1" height="1.4"/>
	</g>
	<g>
		<path class="st1" d="M93.5,65c-8.5,0-15.4-6.9-15.4-15.4c0-8.5,6.9-15.4,15.4-15.4S109,41.1,109,49.6C109,58.1,102,65,93.5,65z
			 M93.5,35.5c-7.7,0-14.1,6.3-14.1,14.1c0,7.7,6.3,14.1,14.1,14.1s14.1-6.3,14.1-14.1C107.6,41.8,101.3,35.5,93.5,35.5z"/>
	</g>
	<g>
		<path class="st1" d="M87.9,46.9c0.5,0,0.9-0.4,0.9-0.9c0-0.5-0.4-0.9-0.9-0.9c-0.5,0-0.9,0.4-0.9,0.9C87,46.5,87.4,46.9,87.9,46.9
			"/>
	</g>
	<g>
		<path class="st1" d="M98.5,47.1c0.5,0,0.9-0.4,0.9-0.9c0-0.5-0.4-0.9-0.9-0.9c-0.5,0-0.9,0.4-0.9,0.9C97.6,46.7,98,47.1,98.5,47.1
			"/>
	</g>
	<g>
		<path class="st1" d="M93.5,59.1c-6.3,0-8.8-5.6-8.8-5.7c-0.2-0.3,0-0.7,0.3-0.9c0.3-0.2,0.7,0,0.9,0.3c0.1,0.2,2.3,5.1,8,4.8
			c6-0.2,7.4-5,7.4-5c0.1-0.4,0.5-0.6,0.8-0.5c0.4,0.1,0.6,0.5,0.5,0.8c0,0.1-1.7,5.8-8.6,6C93.8,59.1,93.7,59.1,93.5,59.1z"/>
	</g>
	<g>
		<path class="st1" d="M79.3,49.6l-0.9-1c0,0,5.1-4.8,10.7-8.8c3.8-2.7,8-4.7,8.2-4.8l0.6,1.2c0,0-4.4,2-8,4.7
			C84.3,44.9,79.4,49.5,79.3,49.6z"/>
	</g>
	<g>
		<path class="st1" d="M107.9,50.8c-0.2-0.1-3.9-3-7.9-9.3c-2-3.1-3.2-5.8-3.2-5.9L98,35c0,0,1.2,2.8,3.1,5.7c3.9,6.1,7.6,9,7.6,9
			L107.9,50.8z"/>
	</g>
	<g>
		<path class="st1" d="M111.6,85.7c-0.4,0-0.7-0.3-0.7-0.7l-0.1-2.9c-0.6-9.1-8.4-16.3-17.7-16.3c-9.3,0-17,7.2-17.7,16.3l-0.1,2.8
			c0,0.4-0.3,0.7-0.7,0.7c-0.4,0-0.7-0.3-0.7-0.7l0.1-2.9c0.7-9.9,9.1-17.6,19-17.6c10,0,18.3,7.7,19,17.6l0.1,2.9
			C112.3,85.4,112,85.7,111.6,85.7C111.6,85.7,111.6,85.7,111.6,85.7z"/>
	</g>
	<g>
		<path class="st1" d="M93.6,76.9c-0.2,0-0.3-0.1-0.4-0.2c0,0-8-6.9-9.7-8.4l0.9-1c1.4,1.2,7.5,6.4,9.3,8c1.5-1.5,6.5-6.3,8.5-8
			l0.9,1c-2.3,1.9-8.8,8.3-8.8,8.3C94,76.8,93.8,76.9,93.6,76.9z"/>
	</g>
	<g>
		<path class="st1" d="M108.7,74.2c-0.3,0-0.5-0.1-0.8-0.2l0.7-1.2c0.1,0.1,0.3,0,0.5-0.1c1-0.6,2.5-2.8,2.5-5.7c0-3-4-17.8-4.1-18
			l1.3-0.4c0.2,0.6,4.1,15.1,4.1,18.3c0,3.2-1.6,6-3.2,6.9C109.5,74.1,109.1,74.2,108.7,74.2z"/>
	</g>
	<g>
		<path class="st1" d="M77.9,73.8c-0.5,0-0.9-0.2-1.4-0.6c-1.1-0.9-2.4-3.1-2.4-6.3c0-3.2,3.9-17.7,4.1-18.3l1.3,0.4
			c0,0.1-4.1,15-4.1,18c0,2.6,0.9,4.5,1.9,5.3c0.3,0.2,0.5,0.3,0.6,0.3l0.3,1.3C78.1,73.8,78,73.8,77.9,73.8z"/>
	</g>
	<g>
		<path class="st1" d="M93.6,85.7c-0.4,0-0.7-0.3-0.7-0.7v-8.1c0-0.4,0.3-0.7,0.7-0.7s0.7,0.3,0.7,0.7V85
			C94.3,85.4,94,85.7,93.6,85.7z"/>
	</g>
	<g>
		<path class="st1" d="M89.7,78.7c0.5,0,0.9-0.4,0.9-0.9c0-0.5-0.4-0.9-0.9-0.9c-0.5,0-0.9,0.4-0.9,0.9
			C88.8,78.3,89.2,78.7,89.7,78.7"/>
	</g>
	<g>
		<path class="st1" d="M89.7,85c0.5,0,0.9-0.4,0.9-0.9c0-0.5-0.4-0.9-0.9-0.9c-0.5,0-0.9,0.4-0.9,0.9C88.8,84.6,89.2,85,89.7,85"/>
	</g>
	<g>
		<path class="st1" d="M35.4,65C26.9,65,20,58.1,20,49.6c0-8.5,6.9-15.4,15.4-15.4s15.4,6.9,15.4,15.4C50.8,58.1,43.9,65,35.4,65z
			 M35.4,35.5c-7.7,0-14.1,6.3-14.1,14.1c0,7.7,6.3,14.1,14.1,14.1s14.1-6.3,14.1-14.1C49.4,41.8,43.1,35.5,35.4,35.5z"/>
	</g>
	<g>
		<path class="st1" d="M29.7,46.9c0.5,0,0.9-0.4,0.9-0.9c0-0.5-0.4-0.9-0.9-0.9c-0.5,0-0.9,0.4-0.9,0.9
			C28.8,46.5,29.2,46.9,29.7,46.9"/>
	</g>
	<g>
		<path class="st1" d="M40.4,47.1c0.5,0,0.9-0.4,0.9-0.9c0-0.5-0.4-0.9-0.9-0.9c-0.5,0-0.9,0.4-0.9,0.9
			C39.5,46.7,39.9,47.1,40.4,47.1"/>
	</g>
	<g>
		<path class="st1" d="M35.4,59.1c-6.3,0-8.8-5.6-8.8-5.7c-0.2-0.3,0-0.7,0.3-0.9c0.3-0.2,0.7,0,0.9,0.3c0.1,0.2,2.3,5.1,8,4.8
			c6-0.2,7.4-5,7.4-5c0.1-0.4,0.5-0.6,0.8-0.5c0.4,0.1,0.6,0.5,0.5,0.8c0,0.1-1.7,5.8-8.6,6C35.7,59.1,35.5,59.1,35.4,59.1z"/>
	</g>
	<g>
		<path class="st1" d="M16.7,85.7C16.7,85.7,16.7,85.7,16.7,85.7c-0.4,0-0.7-0.3-0.7-0.7l0.1-2.9c0.7-9.9,9.1-17.6,19-17.6
			c10,0,17.8,7.2,18.5,17.1c0,0.4-0.3,0.7-0.6,0.7c-0.4,0-0.7-0.3-0.7-0.6c-0.7-9.2-7.9-15.9-17.1-15.9c-9.3,0-17,7.2-17.7,16.3
			l-0.1,2.8C17.3,85.4,17,85.7,16.7,85.7z"/>
	</g>
	<g>
		<path class="st1" d="M42,71.2c-0.1,0-0.3,0-0.4-0.1l-6.2-4.4L29.2,71c-0.2,0.1-0.5,0.2-0.7,0c-0.2-0.1-0.4-0.4-0.4-0.6v-3.9h1.4
			v2.6l5.5-3.8c0.2-0.2,0.5-0.2,0.8,0l5.5,3.9v-3h1.4v4.3c0,0.3-0.1,0.5-0.4,0.6C42.2,71.2,42.1,71.2,42,71.2z"/>
	</g>
	<g>
		<path class="st1" d="M48.5,80.6h-5.2c-0.4,0-0.7-0.3-0.7-0.7s0.3-0.7,0.7-0.7h5.2c0.4,0,0.7,0.3,0.7,0.7S48.8,80.6,48.5,80.6z"/>
	</g>
	<g>
		<path class="st1" d="M35.5,86.4c-0.3,0-0.5-0.1-0.6-0.4l-9-17.5c-0.2-0.3,0-0.7,0.3-0.9c0.3-0.2,0.7,0,0.9,0.3l8.4,16.3l8.4-16.3
			c0.2-0.3,0.6-0.5,0.9-0.3c0.3,0.2,0.5,0.6,0.3,0.9l-9,17.5C36,86.3,35.7,86.4,35.5,86.4z"/>
	</g>
	<g>
		<path class="st1" d="M38.4,79.9c-0.3,0-0.6-0.2-0.6-0.5L35.6,73l-2.4,6.4c-0.1,0.4-0.5,0.5-0.9,0.4c-0.4-0.1-0.5-0.5-0.4-0.9
			l2.4-6.4l-1.6-2.5c-0.1-0.2-0.1-0.5,0-0.7l2.1-3.8c0.1-0.2,0.3-0.4,0.6-0.4c0.2,0,0.5,0.1,0.6,0.3l2.2,3.7c0.1,0.2,0.1,0.4,0,0.7
			l-1.3,2.6L39,79c0.1,0.4-0.1,0.7-0.4,0.9C38.5,79.9,38.4,79.9,38.4,79.9z M34.1,69.7l1.5,2.4l1.2-2.4l-1.4-2.4L34.1,69.7z"/>
	</g>
	<g>
		<path class="st1" d="M49.8,50.3c-0.2,0-0.4-0.1-0.6-0.3c-1.1-1.6-2.6-3.5-3.2-4c-0.2,0.1-0.4,0.2-0.7,0.2
			c-1.8,0.1-5.3-3.3-7.3-5.4l0.1,1.2c0,0.2-0.1,0.4-0.2,0.6c-0.2,0.1-0.4,0.2-0.6,0.1c-0.1,0-3-0.8-5.3-2.9c-2.3-2-2.8-2.8-2.8-2.9
			c-0.2-0.3-0.1-0.7,0.2-0.9c0.3-0.2,0.7-0.1,0.9,0.2c0,0,0.5,0.8,2.6,2.6c1.3,1.1,2.8,1.9,3.8,2.2l-0.2-2.2c0-0.3,0.1-0.6,0.4-0.7
			c0.3-0.1,0.6-0.1,0.8,0.2c3.3,3.7,6.9,6.7,7.7,6.4c0.2-0.2,0.4-0.3,0.7-0.3c0.3,0,1.2,0,4.4,4.7c0.2,0.3,0.1,0.7-0.2,1
			C50.1,50.2,50,50.3,49.8,50.3z"/>
	</g>
	<g>
		<path class="st1" d="M21.3,50.4L20,50.2c0-0.3,1-6.2,6.1-9.9c2.1-1.6,3.1-3.5,3.1-3.5l1.2,0.6c0,0.1-1.1,2.3-3.5,4
			C22.3,44.8,21.4,50.3,21.3,50.4z"/>
	</g>
</g>
</svg>
