<?xml version="1.0" encoding="utf-8"?>
<!-- Generator: Adobe Illustrator 21.1.0, SVG Export Plug-In . SVG Version: 6.00 Build 0)  -->
<svg version="1.1" id="Ebene_1" xmlns="http://www.w3.org/2000/svg" xmlns:xlink="http://www.w3.org/1999/xlink" x="0px" y="0px"
	 viewBox="0 0 130 130" style="enable-background:new 0 0 130 130;" xml:space="preserve">
<style type="text/css">
	.st0{fill:#FFFFFF;}
	.st1{fill:#1D1D1B;}
</style>
<circle class="st0" cx="65" cy="65" r="65"/>
<g>
	<g>
		<path class="st0" d="M84.9,46.4C84.9,40,79.1,34,74.5,34c-2.4,0-6.7,2.6-9.5,2.6c-2.8,0-7.1-2.6-9.5-2.6c-4.6,0-10.3,6-10.3,12.4
			c0,8.2,4.3,13.7,4.3,16.2c0,2.4-0.2,13.9,0,16.2c0.9,8.2,2.4,15.5,5.7,17.1c4.8,2.2,3.8-11,3.8-14.3c0-7,3.2-11.6,6.2-11.6
			c3,0,6.2,4.6,6.2,11.6c0,3.4-1,16.6,3.8,14.3c3.2-1.5,4.8-8.8,5.7-17.1c0.2-2.2,0-13.7,0-16.2C80.6,60.1,84.9,54.6,84.9,46.4"/>
	</g>
	<g>
		<path class="st1" d="M73.9,97c-0.6,0-1.1-0.2-1.4-0.4C70,95,70,89,70.1,83c0-0.7,0-1.2,0-1.6c0-6.8-3.1-10.6-5.2-10.6
			s-5.2,3.8-5.2,10.6c0,0.4,0,1,0,1.6C60,89,60,95,57.5,96.6c-0.6,0.4-1.5,0.7-2.8,0.1c-3.1-1.5-5-7-6.2-17.9
			c-0.2-1.7-0.1-8.5,0-12.9c0-1.5,0-2.7,0-3.3c0-0.7-0.5-1.9-1.1-3.3c-1.2-2.9-3.1-7.3-3.1-12.8c0-7.1,6.3-13.4,11.3-13.4
			c1.4,0,3,0.6,4.8,1.3c1.7,0.7,3.5,1.3,4.7,1.3c1.3,0,3-0.7,4.7-1.3c1.8-0.7,3.4-1.3,4.8-1.3c5,0,11.3,6.3,11.3,13.4
			c0,5.5-1.9,9.9-3.1,12.8c-0.6,1.4-1.1,2.7-1.1,3.3c0,0.6,0,1.8,0,3.3c0.1,4.5,0.1,11.2,0,12.9c-1.2,10.9-3.1,16.4-6.2,17.9
			C74.8,96.9,74.3,97,73.9,97z M55.5,35c-4.1,0-9.3,5.5-9.3,11.4c0,5.1,1.7,9.1,3,12.1c0.8,1.8,1.3,3,1.3,4.1c0,0.6,0,1.8,0,3.3
			c-0.1,4.2-0.1,11.1,0,12.7c1.1,9.7,2.8,15.2,5.1,16.3c0.6,0.3,0.8,0.1,0.9,0.1c1.8-1.2,1.6-8.9,1.5-11.8c0-0.7,0-1.2,0-1.7
			c0-7.8,3.7-12.6,7.2-12.6c3.4,0,7.2,4.8,7.2,12.6c0,0.4,0,1,0,1.7c-0.1,2.9-0.3,10.7,1.5,11.8c0.1,0.1,0.3,0.2,0.9-0.1
			c2.3-1.1,4-6.6,5.1-16.3c0.2-1.6,0.1-8.5,0-12.7c0-1.5,0-2.7,0-3.3c0-1.1,0.5-2.3,1.3-4.1c1.3-2.9,3-6.9,3-12.1
			c0-5.9-5.3-11.4-9.3-11.4c-1,0-2.6,0.6-4.1,1.2c-1.9,0.7-3.8,1.5-5.5,1.5s-3.6-0.7-5.5-1.5C58,35.6,56.5,35,55.5,35z"/>
	</g>
	<g>
		<path class="st1" d="M55.2,95.6c-0.1-0.6-2.7-14.1-1.8-22.7C54,66.4,58.2,59.8,65,59.8c7.7,0,11.3,7.8,11.9,13.1
			c0.7,6.5-1.7,22-1.8,22.6l-2-0.3c0-0.2,2.4-15.9,1.8-22.1c-0.5-4.5-3.5-11.3-9.9-11.3c-6.3,0-9.2,6.8-9.6,11.3
			c-0.8,8.3,1.8,22,1.8,22.1L55.2,95.6z"/>
	</g>
	<g>
		<path class="st1" d="M54.3,75.3c-0.5,0-1-0.4-1-1V54.6c0-2.2,0-7.3,5.2-7.5c1.1,0,2.4,0.5,3.7,1.2c1,0.4,2.1,1,2.7,1
			c1.8,0,2.8-0.5,3.9-1.1c0.7-0.4,1.3-0.7,2.2-1c1.9-0.6,3.2,0,3.9,0.5c1.3,1,2,2.9,2,5.3v20.1c0,0.5-0.4,1-1,1c-0.5,0-1-0.4-1-1V53
			c0-1.7-0.5-3.1-1.3-3.7c-0.5-0.4-1.2-0.5-2.2-0.2c-0.7,0.2-1.2,0.5-1.8,0.8c-1.2,0.6-2.5,1.3-4.8,1.3c-1,0-2.2-0.6-3.5-1.1
			c-1-0.5-2.2-1-2.8-1c-2.7,0.1-3.3,2.1-3.3,5.5v19.7C55.3,74.9,54.8,75.3,54.3,75.3z"/>
	</g>
</g>
</svg>
