<svg id="Ebene_1" data-name="Ebene 1" xmlns="https://www.w3.org/2000/svg" viewBox="0 0 374.95 111.72"><defs><style>.cls-1,.cls-4{fill:#94c11e;}.cls-1,.cls-3{fill-rule:evenodd;}.cls-2,.cls-3{fill:#303030;}</style></defs><title>zahnarztpraxis-wilmersdorfer-arcaden-engin-demirer-logo</title><path class="cls-1" d="M55.16,81.95l7.61-.61c7.59-.61,13.08-1,16.89-1.21,0-1.7,0-3.48-.05-5.3-4.3.37-9.28.71-14.39.93-4.35.18-7.5.3-10,.39,0,2,0,3.94,0,5.8M15.07,86.76c1.7-.21,12.34-1,12.53-1.35,0-.15-4.56,0-12.37.55l-3.53.33-.16.85C12.65,87,13.88,86.87,15.07,86.76Zm.27-1.55c2.26-12.64,5.5-26,10.62-37.81A88.27,88.27,0,0,1,38,26.46c4.34-5.8,9.43-8.74,14.31-11.07,3.91-1.87,8.32-2.19,13.29-1.1C74,16.12,80.83,24,84.24,29A116.31,116.31,0,0,1,98.56,58.2c6.69,19.63,8,30.5,10.38,42.87,0,0-5.18-4.76-8.29-.94-.19-8-.89-29.4-7-46.83-4.77-13.5-7.88-19.19-11.75-24.45-3.65-5-6.8-8.06-13.68-9.78a13.4,13.4,0,0,0-9.42.63A23.83,23.83,0,0,0,48.34,28C42.67,35.51,38.09,42.9,34.9,53.56a188.92,188.92,0,0,0-6.46,30.55c7.91-.66,16.2-1.32,23.26-1.89,0-1.91,0-3.9.08-6-3.66.15-6.18.31-10.89.74-.66-.38-.14-.85,3.41-1.33A36.33,36.33,0,0,1,39,75.63c0-.17,5.13-.53,12.79-.92,0-1.75.08-3.54.13-5.35C52.47,49.31,52.65,0,53.53,0s1.22,49.48,1.6,69.36q.05,2.64.06,5.18c3-.15,6.34-.3,9.82-.44,5.4-.22,10.42-.4,14.59-.53,0-1.57,0-3.18,0-4.82,0-17.83.49-24.56,1.1-24.56s1.1,6.73,1.1,24.56c0,1.62,0,3.2,0,4.75,2-.05,3.72-.09,5.14-.11,3.89-.21,6.11-.32,6.11-.18s-4.57.8-11.26,1.42c0,1.86,0,3.66-.05,5.39a34.16,34.16,0,0,1,5.17,0c1.55-.12,5.55-.15,8.29-.13a123.74,123.74,0,0,0-5.57-26.21c-4.17-11.92-7.83-19.62-12-24.94-1.35-1.72-2.18-2.84-3.14-3.89A32.91,32.91,0,0,0,70.6,21.3l.06-.32a12.74,12.74,0,0,1,4.56,3A26.66,26.66,0,0,1,77.08,26c.62.75,1.24,1.56,1.92,2.42,4.18,5.35,7.06,11.32,12.06,24.91a114.93,114.93,0,0,1,5.8,26.51A6.16,6.16,0,0,1,98,80c0,.06-.37.17-1.08.3C97.84,88.9,98,96.35,98,100.39l-1.55.44v-.2c0-4-.23-11.48-1.18-20.09-2.83.43-7.67,1-13.56,1.56-.17,11.18-.56,18.95-1,18.95s-.82-7.68-1-18.76c-4,.36-8.38.75-13,1.12l-11.54.95c-.26,11.5-1.05,19.34-1.69,19.34-.24,0,0-1.78-.33-3.68-.15-.91-1.2,1.27-1.2,1.27,0-2.78.06-6,0-7.13-.15-2.68-.2-5.92-.2-9.52-7.51.62-15.86,1.32-23.53,1.94-.72,6.28-1.16,12.3-1.38,18.11,0,0-14.74,15.33-14.47.76.72-5.57,1.57-11.59,2.64-17.83l-3.54.26c-1.17,6.33-2,12.44-2.7,18.07-.19,3.62,1.32,5.09,2.61,5.74H9.24c-1.19-.88-1.9-2.67-1.91-5.73C8,100.34,8.85,94.25,10,88c-2.77.19-4.92.32-6.23.36-.27-.29,2.53-.66,6.35-1l.16-.85c-5.37.54-9.88.93-10.3.3-.06-.09,4.12-.49,10.44-1.05,2.47-12.74,6.12-26.21,11.45-38.23,4.67-10.53,7.8-15.15,12.56-21.25s8-7.52,13.29-10l.25.23c-1.38.76-2.48,1.36-3.5,2a28.45,28.45,0,0,0-2.85,1.88,31.81,31.81,0,0,0-5.88,6.1C31,32.44,27.9,37,23.24,47.54c-5.3,12-8.94,25.33-11.4,38C13,85.45,14.12,85.32,15.35,85.21Z"/><path class="cls-2" d="M143.15,52.16a2.44,2.44,0,0,1,.5.28.48.48,0,0,1,.2.39c0,.35-.3.51-.61.51a22.15,22.15,0,0,1-3.87-1.11l-6.55,4.49c-1.23.84-1.87,1.3-2.21,1.56l-.21.18c.27.22,3.6.4,8.79.4,9,0,10.77-.26,11-.26a.55.55,0,0,1,.57.57c0,.42-.34.54-.89.64-3,.46-5.1.69-9.75,1-6.05.46-9.22.59-10.47.59-2.08,0-3.22-.66-3.22-1.78,0-.58.64-1.18,2.22-2.13,1.42-.86,6.32-4.28,8.69-6.16-2.33-.86-2.72-1.15-2.72-1.69a2.59,2.59,0,0,1,.16-.79,1.46,1.46,0,0,1,.21-.39.57.57,0,0,1,.44-.24c.26,0,.71.23,3.47,1.9,4.51-3.61,7.15-7.24,7.15-8,0-.17-.2-.37-1-.49a20.21,20.21,0,0,0-2.67-.11A41.37,41.37,0,0,0,133,42.74c-1.23.29-2.24.58-3,.79l-.9.26a2.42,2.42,0,0,1-.52.11.53.53,0,0,1-.54-.57c0-1,.39-3.28,8.64-3.28,5.57,0,12.72,0,12.72,2.63,0,1.33-1,2.77-8.57,8.51,1.21.49,1.91.78,2.32,1"/><path class="cls-3" d="M160.86,51.64c-2.95,0-5.2,2.75-5.2,5.66a2.58,2.58,0,0,0,2.76,2.36c3,0,5.74-2.18,6-2.93a4.65,4.65,0,0,0,.11-1.17,7.61,7.61,0,0,0-.84-3.09,5.29,5.29,0,0,0-2.86-.84m3.9.06a5.36,5.36,0,0,0,1.42-.52l.37-.21.34,3.3c.35,3.26,1,5.53,1.35,5.53a.49.49,0,0,1,.54.54.5.5,0,0,1-.15.33,1.54,1.54,0,0,1-.25.21,5.51,5.51,0,0,1-.7.39,4.55,4.55,0,0,1-1.36.46c-.57,0-.75-.46-1.35-3.65a11.57,11.57,0,0,1-7.89,3.13c-1.83,0-4.39-.48-4.39-3.09,0-3.82,5.29-8,8.93-8A4,4,0,0,1,164.76,51.7Z"/><path class="cls-2" d="M181.52,50.3a2,2,0,0,1,2.06,1.31,22.57,22.57,0,0,1,1.12,4.47c.8,4.09,1.47,4.92,2,5a.6.6,0,0,1,.44.57c0,.59-1.69,1.75-2.43,1.75-.58,0-.81-.53-1.05-1.45L182,56.07c-.37-1.34-.63-2.33-.89-3s-.48-.8-.7-.8c-1.12,0-4.88,4.81-5.53,8.9l-.24.24a3.6,3.6,0,0,1-1.93-.58c.08-2.95.11-5.23.11-14.72a48.41,48.41,0,0,0-.42-6.53.55.55,0,0,1,.57-.54c.57,0,2.66.63,2.66,1.59,0,.72-.1,4.38-.52,13.36l-.15,3.2c1.1-2.63,4-6.92,6.53-6.92"/><path class="cls-2" d="M199.73,50.3c1.65,0,2,1.24,2.4,2.93l1.18,5.23a2.66,2.66,0,0,0,.22.66c.13.24.25.33.36.33a.42.42,0,0,1,.44.45c0,.82-2,1.54-2.4,1.54a.76.76,0,0,1-.67-.48,5.41,5.41,0,0,1-.35-1.07l-1-4.31c-.58-2.48-.91-3.08-1.69-3.08-1.28,0-4,3.16-5.48,7.44a1.43,1.43,0,0,1-.18.44.49.49,0,0,1-.42.21,2.8,2.8,0,0,1-.87-.18,1,1,0,0,1-.78-.91,56,56,0,0,0,.33-5.91,19.74,19.74,0,0,0-.26-3.43.48.48,0,0,1,.48-.51,5.54,5.54,0,0,1,1.22.35,4.28,4.28,0,0,1,.72.35c.17.11.43.3.43.59,0,.53-.2,2.37-.39,3.82l-.23,1.81c1.48-2.7,4.15-6.27,7-6.27"/><path class="cls-3" d="M215.56,51.64c-2.95,0-5.2,2.75-5.2,5.66a2.58,2.58,0,0,0,2.76,2.36c3,0,5.74-2.18,6-2.93a4.6,4.6,0,0,0,.11-1.17,7.61,7.61,0,0,0-.84-3.09,5.29,5.29,0,0,0-2.86-.84m3.9.06a5.36,5.36,0,0,0,1.42-.52l.37-.21.34,3.3c.35,3.26,1,5.53,1.35,5.53a.49.49,0,0,1,.54.54.5.5,0,0,1-.15.33,1.5,1.5,0,0,1-.25.21,5.37,5.37,0,0,1-.7.39,4.55,4.55,0,0,1-1.36.46c-.57,0-.75-.46-1.35-3.65a11.57,11.57,0,0,1-7.89,3.13c-1.83,0-4.39-.48-4.39-3.09,0-3.82,5.29-8,8.93-8A4,4,0,0,1,219.46,51.7Z"/><path class="cls-2" d="M236.34,49.66l.08.48a9.73,9.73,0,0,0,.31,1.24c.31,1,.79,1.75,1.43,1.87a1.84,1.84,0,0,1,.42.11.39.39,0,0,1,.24.36.59.59,0,0,1-.25.46,1.55,1.55,0,0,1-.45.23,3.76,3.76,0,0,1-1.14.17,3.08,3.08,0,0,1-2.69-1.39l-1.59,2.25c-.27.39-.84,1.17-1.37,2.07a8.68,8.68,0,0,0-1.16,2.75,1.42,1.42,0,0,1-.15.49.47.47,0,0,1-.42.23,2.77,2.77,0,0,1-.83-.14c-.27-.09-.69-.31-.69-.76,0-.29.36-3.23.36-5,0-2.09-.2-3.36-.2-3.79,0-.64.5-.77.9-.77S231,51,231,51.89a25.3,25.3,0,0,1-.28,2.65l-.28,1.94a13.1,13.1,0,0,1,1.15-1.85c.69-1,1.43-1.85,2.17-2.77.08-1.32,1-2.76,2.06-2.76a.47.47,0,0,1,.51.51v.06"/><path class="cls-2" d="M244,58.87a3,3,0,0,0,.65.21,14.67,14.67,0,0,0,2,.25c1.52.11,3.18.11,3.71.11,1.34,0,4.11-.29,4.7-.29a.46.46,0,0,1,.48.51c0,.69-4.93,1.78-10.82,1.78a17.41,17.41,0,0,1-2.84-.16c-.7-.13-1.45-.4-1.45-1.1s.89-1.2,1.82-1.81,2.39-1.45,3.75-2.26c2.83-1.68,5.3-3.32,5.3-4.32,0-.12-.06-.21-.31-.27a3.17,3.17,0,0,0-.78-.07,21.3,21.3,0,0,0-5,.84c-.8.21-1.51.42-2,.58l-.68.19a2.05,2.05,0,0,1-.42.08.53.53,0,0,1-.51-.31.74.74,0,0,1-.06-.22v-.14c0-.6,1.41-2,1.95-2.07a11.28,11.28,0,0,1,1.75-.26c.52,0,1,0,1.41,0,5.43,0,7.92.35,7.92,1.94,0,1.21-.92,1.81-3.12,3L247,57.23c-1.51.79-2.29,1.2-2.69,1.43a2.69,2.69,0,0,0-.34.22"/><path class="cls-2" d="M257.41,51.33a.51.51,0,0,1,.54-.51c.37,0,1.21.18,2.89.28,0-3.55-.17-5.27-.17-5.91,0-.37.14-.84.61-.84a3.78,3.78,0,0,1,1.25.35c.43.2,1,.57,1,1.14a39.08,39.08,0,0,0-.6,5.33c3-.07,3.59-.16,3.72-.16a.52.52,0,0,1,.57.57c0,.78-1.63.94-4.27,1.14-.09,1-.17,2.43-.17,4.08,0,2.28.06,3.2.06,3.95a.61.61,0,0,1-.33.6.81.81,0,0,1-.27.07h-.2a2.84,2.84,0,0,1-1-.2c-.27-.11-.64-.34-.64-.73,0-.62.43-3.62.43-6.11V52.82h-2.2c-.83,0-1.19-1.26-1.19-1.49"/><path class="cls-2" d="M280.57,49.65c2.37,0,4.23,1.11,4.23,3.67,0,3.58-4.6,8.11-8.15,8.11-1.22,0-3.81-.38-3.81-1.94a.59.59,0,0,1,.54-.57.64.64,0,0,1,.25.06l.19.1a4,4,0,0,0,.53.25,7.36,7.36,0,0,0,2.65.37c3.21,0,4.81-2,4.81-5.14,0-2.34-1.39-3.18-2.85-3.18a6,6,0,0,0-6.28,6.13l-.42,11.39c0,.45-.09.76-.57.76-.31,0-1.68-.42-1.68-1.19a61.06,61.06,0,0,0,.26-7.31V53.91c0-1.08,0-1.35,0-1.63s-.06-.61-.14-1.79a.6.6,0,0,1,.57-.65c.38,0,2.37.62,2.37,1.75a10.3,10.3,0,0,1-.08,1.14,11.34,11.34,0,0,1,7.6-3.09"/><path class="cls-2" d="M297.79,49.66l.08.48a9.71,9.71,0,0,0,.31,1.24c.31,1,.79,1.75,1.44,1.87a1.84,1.84,0,0,1,.42.11.39.39,0,0,1,.24.36.59.59,0,0,1-.25.46,1.54,1.54,0,0,1-.45.23,3.76,3.76,0,0,1-1.14.17,3.08,3.08,0,0,1-2.69-1.39l-1.58,2.25c-.27.39-.84,1.17-1.37,2.07a8.68,8.68,0,0,0-1.16,2.75,1.44,1.44,0,0,1-.15.49A.47.47,0,0,1,291,61a2.77,2.77,0,0,1-.83-.14c-.27-.09-.68-.31-.68-.76,0-.29.36-3.23.36-5,0-2.09-.2-3.36-.2-3.79,0-.64.5-.77.9-.77s1.88.46,1.88,1.36a25.29,25.29,0,0,1-.28,2.65l-.28,1.94a13.2,13.2,0,0,1,1.15-1.85c.69-1,1.43-1.85,2.17-2.77.08-1.32,1-2.76,2.06-2.76a.47.47,0,0,1,.51.51v.06"/><path class="cls-3" d="M310.46,51.64c-2.95,0-5.2,2.75-5.2,5.66A2.58,2.58,0,0,0,308,59.67c3,0,5.74-2.18,6-2.93a4.6,4.6,0,0,0,.11-1.17,7.61,7.61,0,0,0-.84-3.09,5.29,5.29,0,0,0-2.86-.84m3.9.06a5.37,5.37,0,0,0,1.42-.52l.37-.21.34,3.3c.35,3.26,1,5.53,1.35,5.53a.49.49,0,0,1,.54.54.49.49,0,0,1-.15.33,1.54,1.54,0,0,1-.25.21,5.44,5.44,0,0,1-.7.39,4.55,4.55,0,0,1-1.36.46c-.57,0-.75-.46-1.35-3.65a11.57,11.57,0,0,1-7.89,3.13c-1.83,0-4.39-.48-4.39-3.09,0-3.82,5.29-8,8.93-8A4,4,0,0,1,314.36,51.7Z"/><path class="cls-2" d="M334.48,51.78c-.36.16-.86.35-1.46.6a12.31,12.31,0,0,0-3.78,2.38,26.06,26.06,0,0,0,4.42,4.48c.48.37.84.59,1.07.75a.85.85,0,0,1,.46.65A.5.5,0,0,1,335,61a1.15,1.15,0,0,1-.24.2,3.61,3.61,0,0,1-.64.31,4.58,4.58,0,0,1-1.38.32c-1,0-2.88-2.37-5.12-5.33-.6.8-1.14,1.63-1.62,2.42s-1,1.75-1.43,2.49-.77,1.39-1.08,1.84a3.6,3.6,0,0,1-.44.56.78.78,0,0,1-.53.27c-.53,0-1.26-1-1.26-1.45s1.4-2.49,5.52-7.09a21.63,21.63,0,0,0-3.7-3.37c-.52-.38-.95-.67-1.25-.9a3,3,0,0,1-.38-.33.65.65,0,0,1-.19-.42.4.4,0,0,1,.14-.3.77.77,0,0,1,.21-.12,2.39,2.39,0,0,1,.5-.13,7.09,7.09,0,0,1,1.06-.09,6.35,6.35,0,0,1,1.18.09,2.31,2.31,0,0,1,1.31.66l2.77,3.16c2.64-2.88,4.54-4.1,5.41-4.1a1.62,1.62,0,0,1,1.32,1.42.57.57,0,0,1-.26.45,2.44,2.44,0,0,1-.47.26"/><path class="cls-3" d="M342.67,47.56a3,3,0,0,1-1.06-.26c-.34-.15-.79-.43-.82-.89-.07-.92-.16-1.84-.16-2.76a.41.41,0,0,1,.23-.4.55.55,0,0,1,.18,0h.13a3.48,3.48,0,0,1,1.94.83l0,.06v0l0,.08,0,.2,0,.56c0,.43,0,.94,0,1.35a3.84,3.84,0,0,1-.05.85.47.47,0,0,1-.49.37m-2.25,3.59a3.66,3.66,0,0,0-.16-.5l-.06-.16a.65.65,0,0,1,0-.2c0-.29.2-.44.51-.44a6.21,6.21,0,0,1,1.43.32,3.58,3.58,0,0,1,.84.39.9.9,0,0,1,.46.71c0,1.5-.36,5.32-.36,7.34,0,.88.07,1.6.07,2.25a.56.56,0,0,1-.61.57,3.26,3.26,0,0,1-1-.23c-.34-.13-.86-.42-.86-.93v-6.2A12.93,12.93,0,0,0,340.43,51.15Z"/><path class="cls-2" d="M348.51,58.23a.5.5,0,0,1,.17,0l.13.06.4.19c.33.15.78.36,1.32.56a11.45,11.45,0,0,0,4,.81c1.37,0,2.69-.19,2.69-2.2,0-.53-.37-.85-1.18-1.06a8.84,8.84,0,0,0-1.39-.21c-.52,0-1.08-.07-1.64-.11-2.09-.12-4.74-.28-4.74-2.3,0-3.4,5.86-4.17,8-4.17,1.93,0,3.48.46,3.48,1.81a1.94,1.94,0,0,1-.11.6,1,1,0,0,1-.16.3.48.48,0,0,1-.37.2.52.52,0,0,1-.18,0l-.39-.21a7.57,7.57,0,0,0-.87-.46,8.62,8.62,0,0,0-3.52-.66c-1.37,0-3.18.33-3.18,1.64,0,.38.34.66,1.18.88a23,23,0,0,0,2.91.41c2.31.25,4.85.62,4.85,2.6,0,3.64-5.05,4.52-7.4,4.52-3.19,0-4.46-.57-4.46-2.24a2,2,0,0,1,.08-.63.44.44,0,0,1,.4-.34"/><path class="cls-3" d="M133.33,91.69a.23.23,0,0,1-.24.19,1.5,1.5,0,0,1-.53-.13c-.17-.07-.4-.21-.41-.44,0-.46-.08-.92-.08-1.38a.21.21,0,0,1,.12-.2l.09,0h.07a1.74,1.74,0,0,1,1,.41.23.23,0,0,1,0,.1v1.05a1.9,1.9,0,0,1,0,.43m-1.25,3.44a6.43,6.43,0,0,0-.12-1.46,1.83,1.83,0,0,0-.08-.25l0-.08a.36.36,0,0,1,0-.1c0-.14.1-.22.25-.22a3.11,3.11,0,0,1,.71.16,1.76,1.76,0,0,1,.42.2.45.45,0,0,1,.23.36c0,.75-.18,2.66-.18,3.67,0,.44,0,.8,0,1.13a.28.28,0,0,1-.3.29,1.61,1.61,0,0,1-.49-.11c-.17-.07-.43-.21-.43-.47Z"/><path class="cls-2" d="M137.2,96.38c.74-1.35,2.08-3.13,3.49-3.13.83,0,1,.62,1.2,1.46l.59,2.61a1.33,1.33,0,0,0,.11.33c.06.12.13.17.18.17A.21.21,0,0,1,143,98c0,.41-1,.77-1.2.77a.38.38,0,0,1-.34-.24,2.67,2.67,0,0,1-.17-.54l-.51-2.15c-.29-1.24-.45-1.54-.84-1.54-.64,0-2,1.58-2.74,3.72a.71.71,0,0,1-.09.22.24.24,0,0,1-.21.11,1.4,1.4,0,0,1-.44-.09.52.52,0,0,1-.39-.46,28.06,28.06,0,0,0,.16-3,9.89,9.89,0,0,0-.13-1.71.24.24,0,0,1,.24-.25,2.75,2.75,0,0,1,.61.18,2.23,2.23,0,0,1,.36.18.67.67,0,0,1,.14.11.28.28,0,0,1,.08.18c0,.26-.1,1.19-.2,1.91l-.12.9"/><path class="cls-3" d="M155.86,96.81c0-.72.08-1.42.08-2.14a3.66,3.66,0,0,0-2.44-.75,2.5,2.5,0,0,0-2.4,2.62c0,1,.67,1.3,1.57,1.3a7.29,7.29,0,0,0,3.19-1m.08-4.73c0-2.28-.18-4-.18-4.18a.27.27,0,0,1,.3-.27,2.09,2.09,0,0,1,.73.15.79.79,0,0,1,.55.58c0,.06,0,.37-.06.8l-.14,1.71c-.1,1.34-.21,2.95-.21,4.14,0,1.79.06,2.82.06,4.1a.2.2,0,0,1-.2.2,1.33,1.33,0,0,1-.51-.15.73.73,0,0,1-.44-.65c0-.53,0-.81,0-1a10.08,10.08,0,0,1-4.33,1.19c-.93,0-1.92-.29-1.92-1.53a4.83,4.83,0,0,1,4.4-4,3.08,3.08,0,0,1,1.93.74Z"/><path class="cls-3" d="M163.8,95.34a1.41,1.41,0,0,0,.57-.16c.05,0,.08-.1.08-.3,0-.69-.36-1-1-1a2.62,2.62,0,0,0-2.66,1.91l3-.49m-3.09,1.19c0,1.32,1.41,1.52,2.46,1.52a8.38,8.38,0,0,0,2.4-.35c.29-.09.52-.17.68-.24l.2-.08.07,0h.08a.28.28,0,0,1,.27.29.33.33,0,0,1-.14.29l-.16.08-.21.08a13,13,0,0,1-4.13.73c-.33,0-.67,0-1,0a3.41,3.41,0,0,1-.93-.17,1.46,1.46,0,0,1-1-1.54A4.45,4.45,0,0,1,164,93.25c1.47,0,1.71.46,1.72,1.86a.28.28,0,0,1,.16.27.24.24,0,0,1-.17.25,3.21,3.21,0,0,1-.51.12Z"/><path class="cls-2" d="M169.74,96.38c.74-1.35,2.08-3.13,3.49-3.13.83,0,1,.62,1.2,1.46l.59,2.61a1.34,1.34,0,0,0,.11.33c.06.12.13.17.18.17a.21.21,0,0,1,.22.23c0,.41-1,.77-1.2.77a.38.38,0,0,1-.34-.24,2.67,2.67,0,0,1-.17-.54l-.51-2.15c-.29-1.24-.45-1.54-.84-1.54-.64,0-2,1.58-2.74,3.72a.69.69,0,0,1-.09.22.24.24,0,0,1-.21.11,1.4,1.4,0,0,1-.44-.09.52.52,0,0,1-.39-.46,28.06,28.06,0,0,0,.16-3,9.89,9.89,0,0,0-.13-1.71.24.24,0,0,1,.24-.25,2.74,2.74,0,0,1,.61.18,2.25,2.25,0,0,1,.36.18.67.67,0,0,1,.14.11.28.28,0,0,1,.08.18c0,.26-.1,1.19-.2,1.91l-.12.9"/><path class="cls-2" d="M185.95,96.75l3.47-6.52a.82.82,0,0,1,.76-.37.34.34,0,0,1,.31.17,1.08,1.08,0,0,1,.08.17l.08.23,2.25,6.28c.16.45.33.53.42.53.56,0,2.7-3.1,2.7-6.45a11.59,11.59,0,0,0-.29-2.64c0-.3.21-.35.38-.35,1.1,0,1.4,1.49,1.4,2.26,0,3.45-3.88,8.77-4.9,8.77-.39,0-.69-.49-.9-1l-2.21-6-2.66,5.1c-.68,1.32-1.08,2-1.53,2a.46.46,0,0,1-.41-.27,3,3,0,0,1-.24-.72l-1.73-7.28a2.58,2.58,0,0,0-.78-1.54L182,88.9l-.15-.08a.36.36,0,0,1-.2-.32.26.26,0,0,1,.21-.24.88.88,0,0,1,.24,0,4.3,4.3,0,0,1,1.12.16,1.29,1.29,0,0,1,1,.82l1.75,7.55"/><path class="cls-3" d="M201.12,91.69a.23.23,0,0,1-.24.19,1.5,1.5,0,0,1-.53-.13c-.17-.07-.4-.21-.41-.44,0-.46-.08-.92-.08-1.38a.21.21,0,0,1,.12-.2l.09,0h.07a1.74,1.74,0,0,1,1,.41.24.24,0,0,1,0,.1v1.05a1.91,1.91,0,0,1,0,.43m-1.25,3.44a6.51,6.51,0,0,0-.12-1.46,2,2,0,0,0-.08-.25l0-.08a.33.33,0,0,1,0-.1c0-.14.1-.22.25-.22a3.12,3.12,0,0,1,.71.16,1.76,1.76,0,0,1,.42.2.45.45,0,0,1,.23.36c0,.75-.18,2.66-.18,3.67,0,.44,0,.8,0,1.13a.28.28,0,0,1-.3.29,1.62,1.62,0,0,1-.49-.11c-.17-.07-.43-.21-.43-.47Z"/><path class="cls-2" d="M204.11,91.17a24.36,24.36,0,0,0-.21-3.26.27.27,0,0,1,.29-.27,2.16,2.16,0,0,1,.77.22,1.63,1.63,0,0,1,.37.23.48.48,0,0,1,.19.35c0,2.35-.21,3.85-.21,7.37,0,2.15.08,2.61.08,2.74s-.15.27-.34.27a1.7,1.7,0,0,1-.5-.09.56.56,0,0,1-.44-.49V91.17"/><path class="cls-2" d="M213.21,96.47c.65-1.18,2.05-3,3.21-3,.53,0,.88.25,1,1l.65,2.92a1.78,1.78,0,0,0,.15.44c.05.09.09.1.11.1.18,0,.3.08.3.29s-.91.81-1.26.81c-.18,0-.26-.1-.33-.31s-.13-.52-.26-1.14c-.57-2.65-.82-2.89-1.14-2.89-.71,0-2.36,2.57-2.55,3.43-.09.4-.18.5-.4.5a1.16,1.16,0,0,1-.4-.09.46.46,0,0,1-.33-.39,23,23,0,0,0,.19-2.41,1.59,1.59,0,0,0-.12-.79c-.05-.08-.13-.11-.31-.11-.66,0-2.1,1.58-2.61,3.44l0,.11,0,.1a.25.25,0,0,1-.22.15,1.29,1.29,0,0,1-.41-.06.42.42,0,0,1-.32-.39c0-.21.18-1.68.18-3.1a8.9,8.9,0,0,0-.08-1.52.25.25,0,0,1,.27-.27,1.82,1.82,0,0,1,.75.17.69.69,0,0,1,.46.57,13.53,13.53,0,0,1-.26,1.77l-.1.52c.78-1.28,2.24-2.6,3.09-2.6.51,0,.89.23.86,1.27,0,.69,0,1.14-.07,1.51"/><path class="cls-3" d="M224.57,95.34a1.4,1.4,0,0,0,.57-.16c.05,0,.08-.1.08-.3,0-.69-.36-1-1-1a2.62,2.62,0,0,0-2.66,1.91l3-.49m-3.08,1.19c0,1.32,1.41,1.52,2.46,1.52a8.39,8.39,0,0,0,2.4-.35c.29-.09.52-.17.68-.24l.21-.08.07,0h.08a.28.28,0,0,1,.27.29.32.32,0,0,1-.14.29l-.16.08-.21.08a13,13,0,0,1-4.13.73c-.33,0-.67,0-1,0a3.42,3.42,0,0,1-.93-.17,1.46,1.46,0,0,1-1-1.54,4.45,4.45,0,0,1,4.69-3.84c1.47,0,1.71.46,1.72,1.86a.28.28,0,0,1,.16.27.24.24,0,0,1-.17.25,3.18,3.18,0,0,1-.52.12Z"/><path class="cls-2" d="M230.83,96.28a9.57,9.57,0,0,1,.57-.87c.34-.48.72-.92,1.08-1.38,0-.66.48-1.38,1-1.38a.23.23,0,0,1,.25.25s0,0,0,.06l0,.2a5,5,0,0,0,.15.62c.15.48.39.88.72.93l.12,0,.09,0A.19.19,0,0,1,235,95a.3.3,0,0,1-.12.23.79.79,0,0,1-.23.12,1.89,1.89,0,0,1-.57.09,1.54,1.54,0,0,1-1.34-.7l-.79,1.13c-.14.19-.42.58-.69,1a4.34,4.34,0,0,0-.58,1.37.7.7,0,0,1-.07.25.23.23,0,0,1-.21.12,1.4,1.4,0,0,1-.42-.07c-.13,0-.34-.15-.34-.38s.18-1.61.18-2.5c0-1-.1-1.68-.1-1.89s.25-.39.45-.39.94.23.94.68a12.88,12.88,0,0,1-.14,1.32l-.13.92"/><path class="cls-2" d="M236.11,97.38a.22.22,0,0,1,.2-.17l.08,0,.07,0,.2.09c.16.08.39.18.66.28a5.72,5.72,0,0,0,2,.41c.68,0,1.35-.09,1.35-1.1,0-.26-.19-.43-.59-.53a4.36,4.36,0,0,0-.69-.11l-.82-.05A6.53,6.53,0,0,1,237,96a1,1,0,0,1-.79-.93c0-.87.77-1.38,1.6-1.68a7.84,7.84,0,0,1,2.41-.4c1,0,1.74.23,1.74.91a1,1,0,0,1-.05.3.51.51,0,0,1-.08.15.24.24,0,0,1-.19.1l-.08,0-.06,0-.14-.08a3.68,3.68,0,0,0-.44-.23,4.31,4.31,0,0,0-1.76-.33,3.05,3.05,0,0,0-1.05.17.71.71,0,0,0-.54.66c0,.19.17.33.59.44a11.47,11.47,0,0,0,1.46.2,6.6,6.6,0,0,1,1.64.33,1,1,0,0,1,.78,1c0,1.82-2.53,2.26-3.7,2.26-1.59,0-2.23-.29-2.23-1.12a1,1,0,0,1,0-.32"/><path class="cls-3" d="M250.06,96.81c0-.72.08-1.42.08-2.14a3.66,3.66,0,0,0-2.44-.75,2.5,2.5,0,0,0-2.4,2.62c0,1,.67,1.3,1.57,1.3a7.29,7.29,0,0,0,3.19-1m.08-4.73c0-2.28-.18-4-.18-4.18a.27.27,0,0,1,.3-.27,2.1,2.1,0,0,1,.74.15.79.79,0,0,1,.55.58c0,.06,0,.37-.06.8l-.14,1.71c-.1,1.34-.21,2.95-.21,4.14,0,1.79.07,2.82.07,4.1a.2.2,0,0,1-.2.2,1.34,1.34,0,0,1-.52-.15.73.73,0,0,1-.44-.65c0-.53,0-.81,0-1a10.09,10.09,0,0,1-4.33,1.19c-.93,0-1.92-.29-1.92-1.53a4.83,4.83,0,0,1,4.4-4,3.08,3.08,0,0,1,1.93.74Z"/><path class="cls-3" d="M257.22,97.93A2,2,0,0,0,259.41,96c0-1.25-.93-1.88-2.29-1.88A2.15,2.15,0,0,0,254.83,96c0,1.17,1.26,1.92,2.39,1.92m-.95.77c-1.8,0-2.73-.7-2.73-2.08,0-2,2.32-3.26,4.3-3.26,1.27,0,2.86.39,2.86,2C260.7,96.48,259.64,98.7,256.27,98.7Z"/><path class="cls-2" d="M264.26,96.28a9.56,9.56,0,0,1,.57-.87c.35-.48.72-.92,1.08-1.38,0-.66.48-1.38,1-1.38a.23.23,0,0,1,.25.25s0,0,0,.06l0,.2a4.66,4.66,0,0,0,.15.62c.15.48.39.88.72.93l.12,0,.09,0a.19.19,0,0,1,.12.18.3.3,0,0,1-.12.23.78.78,0,0,1-.23.12,1.89,1.89,0,0,1-.57.09,1.54,1.54,0,0,1-1.35-.7l-.79,1.13c-.14.19-.42.58-.69,1a4.36,4.36,0,0,0-.58,1.37.72.72,0,0,1-.07.25.24.24,0,0,1-.21.12,1.4,1.4,0,0,1-.42-.07c-.14,0-.34-.15-.34-.38s.18-1.61.18-2.5c0-1-.1-1.68-.1-1.89s.25-.39.45-.39.94.23.94.68a12.88,12.88,0,0,1-.14,1.32l-.13.92"/><path class="cls-2" d="M269.62,94.61a.78.78,0,0,1-.74-.73.46.46,0,0,1,.05-.22.28.28,0,0,1,.25-.15c.13,0,.7.09,1.19.11,0-.44,0-1,0-1.83a4,4,0,0,1,3.24-4.25c.36,0,.86.1.86.66a1.14,1.14,0,0,1,0,.35.32.32,0,0,1-.29.25.63.63,0,0,1-.27-.08l-.25-.14a1.38,1.38,0,0,0-.68-.18c-.85,0-1.26.93-1.26,5.28h.86c.6,0,1.22-.08,1.26-.08a.22.22,0,0,1,.22.24.26.26,0,0,1-.09.19.68.68,0,0,1-.18.11,2.9,2.9,0,0,1-.54.16,14.92,14.92,0,0,1-1.61.23c-.13,2.6-.24,5.16-.24,8.29a.29.29,0,0,1-.11.21.74.74,0,0,1-.17.11.91.91,0,0,1-.31.1.32.32,0,0,1-.34-.35c0-.24.05-.91.05-2.09,0-3,0-4.6-.06-6.21h-.75"/><path class="cls-3" d="M279,95.34a1.41,1.41,0,0,0,.57-.16c.05,0,.08-.1.08-.3,0-.69-.36-1-1-1A2.62,2.62,0,0,0,276,95.83l3-.49m-3.08,1.19c0,1.32,1.41,1.52,2.46,1.52a8.38,8.38,0,0,0,2.4-.35c.29-.09.52-.17.68-.24l.2-.08.07,0h.08a.28.28,0,0,1,.27.29.33.33,0,0,1-.14.29l-.15.08-.22.08a13,13,0,0,1-4.13.73c-.33,0-.67,0-1,0a3.42,3.42,0,0,1-.93-.17,1.46,1.46,0,0,1-1-1.54,4.45,4.45,0,0,1,4.69-3.84c1.47,0,1.71.46,1.72,1.86a.28.28,0,0,1,.16.27.24.24,0,0,1-.17.25,3.2,3.2,0,0,1-.52.12Z"/><path class="cls-2" d="M285.26,96.28a9.79,9.79,0,0,1,.57-.87c.34-.48.71-.92,1.08-1.38,0-.66.48-1.38,1-1.38a.23.23,0,0,1,.25.25s0,0,0,.06l0,.2a4.8,4.8,0,0,0,.15.62c.16.48.39.88.72.93l.12,0,.09,0a.19.19,0,0,1,.12.18.3.3,0,0,1-.12.23.78.78,0,0,1-.23.12,1.9,1.9,0,0,1-.57.09,1.54,1.54,0,0,1-1.34-.7l-.79,1.13c-.14.19-.42.58-.69,1a4.36,4.36,0,0,0-.58,1.37.7.7,0,0,1-.07.25.23.23,0,0,1-.21.12,1.4,1.4,0,0,1-.42-.07c-.14,0-.34-.15-.34-.38s.18-1.61.18-2.5c0-1-.1-1.68-.1-1.89s.25-.39.45-.39.94.23.94.68a12.67,12.67,0,0,1-.14,1.32l-.13.92"/><path class="cls-2" d="M301.28,94.31c.9,0,3,0,3.85,0a.49.49,0,0,1,.23.05.25.25,0,0,1,.14.22.26.26,0,0,1-.11.21.69.69,0,0,1-.22.1,5.05,5.05,0,0,1-.81.13c-.72.08-1.88.15-3.61.28-1.39,2.2-3.63,5.18-4.61,5.18a1.93,1.93,0,0,1-1.41-1.28.26.26,0,0,1,.25-.27l.18.05.19.09a1.06,1.06,0,0,0,.4.12c.5,0,2.37-1.55,3.83-3.71a4.36,4.36,0,0,0-1.14-.07c-.63,0-1.74,0-1.74-1.41,0-.1,0-.27.2-.27a.22.22,0,0,1,.13.05,2,2,0,0,0,.54.25,10,10,0,0,0,2.76.29c.88-1.37,2-3,2.76-4.38a2.65,2.65,0,0,0-1.55-1,.24.24,0,0,1-.25-.24.3.3,0,0,1,.21-.28,1.11,1.11,0,0,1,.41-.06,6,6,0,0,1,2.13.39,4.18,4.18,0,0,1,1,1.39c.38.7.81,1.61,1.27,2.56A27.4,27.4,0,0,0,309,97.59l.14,0a.25.25,0,0,1,.21.24c0,.36-.9.74-1.3.74s-.47-.19-.72-.62-.6-1.19-1.22-2.47c-1-2.11-1.81-3.5-2.66-5l-2.19,3.82"/><path class="cls-2" d="M312.61,96.28a9.79,9.79,0,0,1,.57-.87c.34-.48.71-.92,1.08-1.38,0-.66.48-1.38,1-1.38a.23.23,0,0,1,.25.25s0,0,0,.06l0,.2a4.8,4.8,0,0,0,.15.62c.16.48.39.88.72.93l.12,0,.09,0a.19.19,0,0,1,.12.18.3.3,0,0,1-.12.23.78.78,0,0,1-.23.12,1.9,1.9,0,0,1-.57.09,1.54,1.54,0,0,1-1.35-.7l-.79,1.13c-.14.19-.42.58-.69,1a4.34,4.34,0,0,0-.58,1.37.7.7,0,0,1-.07.25.23.23,0,0,1-.21.12,1.4,1.4,0,0,1-.42-.07c-.13,0-.34-.15-.34-.38s.18-1.61.18-2.5c0-1-.1-1.68-.1-1.89s.25-.39.45-.39.94.23.94.68a12.6,12.6,0,0,1-.14,1.32l-.13.92"/><path class="cls-2" d="M321.7,98a5.27,5.27,0,0,0,2.13-.49c.28-.12.51-.25.69-.34l.24-.12a.55.55,0,0,1,.2-.05.26.26,0,0,1,.27.27c0,.64-2.54,1.49-4.76,1.49-1.42,0-2.78-.35-2.78-1.76,0-2.31,3.21-4,5.13-4a3,3,0,0,1,1,.15.86.86,0,0,1,.62,1.05.25.25,0,0,1-.24.2h-.06l-.2-.06-.47-.14a6.34,6.34,0,0,0-1.57-.2,2.61,2.61,0,0,0-2.71,2.44c0,1.32,1.4,1.59,2.52,1.59"/><path class="cls-3" d="M332.39,95a3.61,3.61,0,0,0-.15-.47.54.54,0,0,0-.12-.21,2.64,2.64,0,0,0-1.43-.42,2.77,2.77,0,0,0-2.6,2.83,1.29,1.29,0,0,0,1.38,1.18,4.08,4.08,0,0,0,3-1.46,2.27,2.27,0,0,0,.06-.58,4.57,4.57,0,0,0-.15-.86m-1.33-1.87a2,2,0,0,1,1.57.8,2.67,2.67,0,0,0,.71-.26l.19-.11.17,1.65a14.73,14.73,0,0,0,.33,2,3,3,0,0,0,.21.61.55.55,0,0,0,.1.14c.24,0,.3.16.3.29a.25.25,0,0,1-.08.17l-.13.1a2.48,2.48,0,0,1-.35.19,2.24,2.24,0,0,1-.68.23c-.17,0-.26-.08-.35-.35a13.18,13.18,0,0,1-.33-1.47,5.78,5.78,0,0,1-3.94,1.57c-.92,0-2.2-.24-2.2-1.54C326.6,95.25,329.25,93.15,331.07,93.15Z"/><path class="cls-3" d="M342.48,96.81c0-.72.08-1.42.08-2.14a3.66,3.66,0,0,0-2.44-.75,2.5,2.5,0,0,0-2.41,2.62c0,1,.67,1.3,1.57,1.3a7.29,7.29,0,0,0,3.19-1m.08-4.73c0-2.28-.18-4-.18-4.18a.27.27,0,0,1,.3-.27,2.09,2.09,0,0,1,.73.15.79.79,0,0,1,.55.58c0,.06,0,.37-.06.8l-.14,1.71c-.1,1.34-.21,2.95-.21,4.14,0,1.79.07,2.82.07,4.1a.2.2,0,0,1-.21.2,1.34,1.34,0,0,1-.51-.15.73.73,0,0,1-.44-.65c0-.53,0-.81,0-1a10.08,10.08,0,0,1-4.33,1.19c-.93,0-1.92-.29-1.92-1.53a4.83,4.83,0,0,1,4.4-4,3.08,3.08,0,0,1,1.93.74Z"/><path class="cls-3" d="M350.43,95.34a1.41,1.41,0,0,0,.57-.16c.05,0,.08-.1.08-.3,0-.69-.36-1-1-1a2.62,2.62,0,0,0-2.66,1.91l3-.49m-3.08,1.19c0,1.32,1.41,1.52,2.45,1.52a8.38,8.38,0,0,0,2.4-.35c.29-.09.52-.17.68-.24l.2-.08.07,0h.08a.28.28,0,0,1,.27.29.32.32,0,0,1-.14.29l-.15.08-.21.08a13,13,0,0,1-4.13.73c-.33,0-.67,0-1,0a3.42,3.42,0,0,1-.93-.17,1.46,1.46,0,0,1-1-1.54,4.45,4.45,0,0,1,4.69-3.84c1.47,0,1.71.46,1.72,1.86a.28.28,0,0,1,.16.27.24.24,0,0,1-.17.25,3.2,3.2,0,0,1-.52.12Z"/><path class="cls-2" d="M356.37,96.38c.74-1.35,2.08-3.13,3.49-3.13.82,0,1,.62,1.2,1.46l.59,2.61a1.38,1.38,0,0,0,.11.33c.06.12.13.17.18.17a.21.21,0,0,1,.22.23c0,.41-1,.77-1.2.77a.38.38,0,0,1-.34-.24,2.67,2.67,0,0,1-.17-.54l-.51-2.15c-.29-1.24-.45-1.54-.84-1.54-.64,0-2,1.58-2.74,3.72a.74.74,0,0,1-.09.22.24.24,0,0,1-.21.11,1.39,1.39,0,0,1-.44-.09.52.52,0,0,1-.39-.46,28.07,28.07,0,0,0,.16-3,9.89,9.89,0,0,0-.13-1.71.24.24,0,0,1,.24-.25,2.74,2.74,0,0,1,.61.18,2.21,2.21,0,0,1,.36.18.67.67,0,0,1,.14.11.28.28,0,0,1,.08.18c0,.26-.1,1.19-.2,1.91l-.12.9"/><path class="cls-4" d="M241.85,76.23c70.46-.68,133.1-.9,133.1-2s-63.26-1.54-133.1-2c-67.19-.47-120.62,1-120.62,2.16,0,.31,6.24,0,12.93.42,3.2.19-4.45,1.52-4.45,1.52,9.77,0,21.21-.07,25,0C176.28,76.7,208,76.55,241.85,76.23Z"/><text></text></svg>