<?xml version="1.0" encoding="utf-8"?>
<!-- Generator: Adobe Illustrator 21.1.0, SVG Export Plug-In . SVG Version: 6.00 Build 0)  -->
<svg version="1.1" id="Ebene_1" xmlns="http://www.w3.org/2000/svg" xmlns:xlink="http://www.w3.org/1999/xlink" x="0px" y="0px"
	 viewBox="0 0 375 111.7" style="enable-background:new 0 0 375 111.7;" xml:space="preserve">
<style type="text/css">
	.st0{fill:#94C11E;}
	.st1{fill:#FFFFFF;}
</style>
<title>zahnarztpraxis-wilmersdorfer-arcaden-engin-demirer-logo</title>
<path class="st0" d="M55.2,81.9l7.6-0.6c7.6-0.6,13.1-1,16.9-1.2c0-1.7,0-3.5-0.1-5.3c-4.3,0.4-9.3,0.7-14.4,0.9
	c-4.3,0.2-7.5,0.3-10,0.4C55.2,78.1,55.2,80.1,55.2,81.9 M15.1,86.8c1.7-0.2,12.3-1,12.5-1.3c0-0.2-4.6,0-12.4,0.6l-3.5,0.3
	l-0.2,0.8C12.6,87,13.9,86.9,15.1,86.8z M15.3,85.2c2.3-12.6,5.5-26,10.6-37.8c3-7.5,7.1-14.5,12-20.9c4.3-5.8,9.4-8.7,14.3-11.1
	c3.9-1.9,8.3-2.2,13.3-1.1C74,16.1,80.8,24,84.2,29c6.1,9,10.9,18.8,14.3,29.2c6.7,19.6,8,30.5,10.4,42.9c0,0-5.2-4.8-8.3-0.9
	c-0.2-8-0.9-29.4-7-46.8c-4.8-13.5-7.9-19.2-11.8-24.5c-3.7-5-6.8-8.1-13.7-9.8c-3.1-0.9-6.5-0.7-9.4,0.6c-4.2,1.7-7.8,4.6-10.5,8.3
	c-5.7,7.5-10.3,14.9-13.4,25.6c-3,10-5.2,20.2-6.5,30.5c7.9-0.7,16.2-1.3,23.3-1.9c0-1.9,0-3.9,0.1-6c-3.7,0.2-6.2,0.3-10.9,0.7
	c-0.7-0.4-0.1-0.8,3.4-1.3c-1.8,0.1-3.5,0.1-5.3,0c0-0.2,5.1-0.5,12.8-0.9c0-1.8,0.1-3.5,0.1-5.3C52.5,49.3,52.7,0,53.5,0
	s1.2,49.5,1.6,69.4c0,1.8,0.1,3.5,0.1,5.2c3-0.2,6.3-0.3,9.8-0.4c5.4-0.2,10.4-0.4,14.6-0.5c0-1.6,0-3.2,0-4.8
	c0-17.8,0.5-24.6,1.1-24.6s1.1,6.7,1.1,24.6c0,1.6,0,3.2,0,4.8c2-0.1,3.7-0.1,5.1-0.1c3.9-0.2,6.1-0.3,6.1-0.2s-4.6,0.8-11.3,1.4
	c0,1.9,0,3.7-0.1,5.4c1.7-0.1,3.4-0.1,5.2,0c1.6-0.1,5.6-0.2,8.3-0.1c-0.9-8.9-2.8-17.7-5.6-26.2c-4.2-11.9-7.8-19.6-12-24.9
	c-1.3-1.7-2.2-2.8-3.1-3.9c-1.2-1.3-2.5-2.5-3.9-3.6l0.1-0.3c1.7,0.7,3.3,1.7,4.6,3c0.7,0.6,1.3,1.3,1.9,2c0.6,0.8,1.2,1.6,1.9,2.4
	c4.2,5.4,7.1,11.3,12.1,24.9c3,8.6,4.9,17.5,5.8,26.5c0.4,0,0.8,0.1,1.1,0.2c0,0.1-0.4,0.2-1.1,0.3c0.9,8.6,1.1,16,1.1,20.1
	l-1.6,0.4v-0.2c0-4-0.2-11.5-1.2-20.1c-2.8,0.4-7.7,1-13.6,1.6c-0.2,11.2-0.6,18.9-1,18.9s-0.8-7.7-1-18.8c-4,0.4-8.4,0.8-13,1.1
	l-11.5,0.9c-0.3,11.5-1,19.3-1.7,19.3c-0.2,0,0-1.8-0.3-3.7c-0.2-0.9-1.2,1.3-1.2,1.3c0-2.8,0.1-6,0-7.1c-0.2-2.7-0.2-5.9-0.2-9.5
	c-7.5,0.6-15.9,1.3-23.5,1.9c-0.7,6.3-1.2,12.3-1.4,18.1c0,0-14.7,15.3-14.5,0.8c0.7-5.6,1.6-11.6,2.6-17.8l-3.5,0.3
	c-1.2,6.3-2,12.4-2.7,18.1c-0.2,3.6,1.3,5.1,2.6,5.7H9.2C8,110.8,7.3,109,7.3,106C8,100.3,8.9,94.3,10,88c-2.8,0.2-4.9,0.3-6.2,0.4
	c-0.3-0.3,2.5-0.7,6.3-1l0.2-0.8C4.9,87.1,0.4,87.4,0,86.8c-0.1-0.1,4.1-0.5,10.4-1.1c2.5-12.7,6.1-26.2,11.4-38.2
	c4.7-10.5,7.8-15.1,12.6-21.3s8-7.5,13.3-10l0.3,0.2c-1.4,0.8-2.5,1.4-3.5,2c-1,0.6-1.9,1.2-2.8,1.9c-2.2,1.8-4.2,3.8-5.9,6.1
	c-4.7,5.9-7.8,10.5-12.5,21c-5.3,12-8.9,25.3-11.4,38C13,85.4,14.1,85.3,15.3,85.2L15.3,85.2z"/>
<path class="st1" d="M143.1,52.2c0.2,0.1,0.3,0.2,0.5,0.3c0.1,0.1,0.2,0.2,0.2,0.4c0,0.3-0.3,0.5-0.6,0.5c-1.3-0.3-2.6-0.6-3.9-1.1
	l-6.6,4.5c-1.2,0.8-1.9,1.3-2.2,1.6l-0.2,0.2c0.3,0.2,3.6,0.4,8.8,0.4c9,0,10.8-0.3,11-0.3c0.3,0,0.6,0.2,0.6,0.5c0,0,0,0,0,0
	c0,0.4-0.3,0.5-0.9,0.6c-3,0.5-5.1,0.7-9.8,1c-6.1,0.5-9.2,0.6-10.5,0.6c-2.1,0-3.2-0.7-3.2-1.8c0-0.6,0.6-1.2,2.2-2.1
	c1.4-0.9,6.3-4.3,8.7-6.2c-2.3-0.9-2.7-1.2-2.7-1.7c0-0.3,0.1-0.5,0.2-0.8c0-0.1,0.1-0.3,0.2-0.4c0.1-0.1,0.3-0.2,0.4-0.2
	c0.3,0,0.7,0.2,3.5,1.9c4.5-3.6,7.1-7.2,7.1-8c0-0.2-0.2-0.4-1-0.5c-0.9-0.1-1.8-0.1-2.7-0.1c-3.2,0-6.3,0.5-9.4,1.2
	c-1.2,0.3-2.2,0.6-3,0.8l-0.9,0.3c-0.2,0.1-0.3,0.1-0.5,0.1c-0.3,0-0.5-0.2-0.5-0.5c0,0,0,0,0-0.1c0-1,0.4-3.3,8.6-3.3
	c5.6,0,12.7,0,12.7,2.6c0,1.3-1,2.8-8.6,8.5C142,51.7,142.7,52,143.1,52.2"/>
<path class="st1" d="M160.9,51.6c-2.9,0-5.2,2.8-5.2,5.7c0.1,1.4,1.3,2.5,2.8,2.4c3,0,5.7-2.2,6-2.9c0.1-0.4,0.1-0.8,0.1-1.2
	c-0.1-1.1-0.3-2.1-0.8-3.1C162.8,51.9,161.8,51.6,160.9,51.6 M164.7,51.7c0.5-0.1,1-0.3,1.4-0.5l0.4-0.2l0.3,3.3
	c0.4,3.3,1,5.5,1.4,5.5c0.3,0,0.5,0.2,0.5,0.4c0,0,0,0.1,0,0.1c0,0.1-0.1,0.2-0.1,0.3c-0.1,0.1-0.2,0.1-0.3,0.2
	c-0.2,0.1-0.5,0.3-0.7,0.4c-0.4,0.2-0.9,0.4-1.4,0.5c-0.6,0-0.8-0.5-1.4-3.7c-2.1,2-5,3.1-7.9,3.1c-1.8,0-4.4-0.5-4.4-3.1
	c0-3.8,5.3-8,8.9-8C162.8,50.1,164,50.7,164.7,51.7L164.7,51.7z"/>
<path class="st1" d="M181.5,50.3c0.9-0.1,1.8,0.5,2.1,1.3c0.5,1.4,0.9,2.9,1.1,4.5c0.8,4.1,1.5,4.9,2,5c0.3,0.1,0.4,0.3,0.4,0.6
	c0,0.6-1.7,1.8-2.4,1.8c-0.6,0-0.8-0.5-1.1-1.5l-1.7-5.9c-0.4-1.3-0.6-2.3-0.9-3s-0.5-0.8-0.7-0.8c-1.1,0-4.9,4.8-5.5,8.9l-0.2,0.2
	c-0.7,0-1.4-0.2-1.9-0.6c0.1-3,0.1-5.2,0.1-14.7c0-2.2-0.1-4.4-0.4-6.5c0-0.3,0.3-0.5,0.6-0.5c0,0,0,0,0,0c0.6,0,2.7,0.6,2.7,1.6
	c0,0.7-0.1,4.4-0.5,13.4l-0.1,3.2C176.1,54.6,179,50.3,181.5,50.3"/>
<path class="st1" d="M199.7,50.3c1.6,0,2,1.2,2.4,2.9l1.2,5.2c0,0.2,0.1,0.5,0.2,0.7c0.1,0.2,0.3,0.3,0.4,0.3c0.2,0,0.4,0.2,0.4,0.4
	c0,0,0,0,0,0.1c0,0.8-2,1.5-2.4,1.5c-0.3,0-0.6-0.2-0.7-0.5c-0.2-0.3-0.3-0.7-0.4-1.1l-1-4.3c-0.6-2.5-0.9-3.1-1.7-3.1
	c-1.3,0-4,3.2-5.5,7.4c0,0.2-0.1,0.3-0.2,0.4c-0.1,0.1-0.3,0.2-0.4,0.2c-0.3,0-0.6-0.1-0.9-0.2c-0.4-0.1-0.8-0.5-0.8-0.9
	c0.2-2,0.3-3.9,0.3-5.9c0-1.1-0.1-2.3-0.3-3.4c0-0.3,0.2-0.5,0.4-0.5c0,0,0,0,0,0c0.4,0.1,0.8,0.2,1.2,0.3c0.3,0.1,0.5,0.2,0.7,0.3
	c0.2,0.1,0.4,0.3,0.4,0.6c0,0.5-0.2,2.4-0.4,3.8l-0.2,1.8C194.3,53.9,196.9,50.3,199.7,50.3"/>
<path class="st1" d="M215.6,51.6c-2.9,0-5.2,2.8-5.2,5.7c0.1,1.4,1.3,2.5,2.8,2.4c3,0,5.7-2.2,6-2.9c0.1-0.4,0.1-0.8,0.1-1.2
	c-0.1-1.1-0.3-2.1-0.8-3.1C217.5,51.9,216.5,51.6,215.6,51.6 M219.4,51.7c0.5-0.1,1-0.3,1.4-0.5l0.4-0.2l0.3,3.3
	c0.4,3.3,1,5.5,1.4,5.5c0.3,0,0.5,0.2,0.5,0.4c0,0,0,0.1,0,0.1c0,0.1-0.1,0.2-0.1,0.3c-0.1,0.1-0.2,0.1-0.3,0.2
	c-0.2,0.1-0.5,0.3-0.7,0.4c-0.4,0.2-0.9,0.4-1.4,0.5c-0.6,0-0.8-0.5-1.4-3.7c-2.1,2-5,3.1-7.9,3.1c-1.8,0-4.4-0.5-4.4-3.1
	c0-3.8,5.3-8,8.9-8C217.5,50.1,218.7,50.7,219.4,51.7L219.4,51.7z"/>
<path class="st1" d="M236.3,49.7l0.1,0.5c0.1,0.4,0.2,0.8,0.3,1.2c0.3,1,0.8,1.8,1.4,1.9c0.1,0,0.3,0.1,0.4,0.1
	c0.1,0.1,0.2,0.2,0.2,0.4c0,0.2-0.1,0.4-0.3,0.5c-0.1,0.1-0.3,0.2-0.4,0.2c-0.4,0.1-0.8,0.2-1.1,0.2c-1.1,0-2.1-0.5-2.7-1.4
	l-1.6,2.3c-0.3,0.4-0.8,1.2-1.4,2.1c-0.5,0.8-0.9,1.8-1.2,2.8c0,0.2-0.1,0.3-0.1,0.5c-0.1,0.1-0.2,0.2-0.4,0.2
	c-0.3,0-0.6-0.1-0.8-0.1c-0.3-0.1-0.7-0.3-0.7-0.8c0-0.3,0.4-3.2,0.4-5c0-2.1-0.2-3.4-0.2-3.8c0-0.6,0.5-0.8,0.9-0.8
	s1.9,0.5,1.9,1.4c0,0.9-0.1,1.8-0.3,2.7l-0.3,1.9c0.3-0.6,0.7-1.3,1.1-1.8c0.7-1,1.4-1.8,2.2-2.8c0.1-1.3,1-2.8,2.1-2.8
	c0.3,0,0.5,0.2,0.5,0.4C236.3,49.6,236.3,49.6,236.3,49.7L236.3,49.7"/>
<path class="st1" d="M244,58.9c0.2,0.1,0.4,0.2,0.6,0.2c0.7,0.1,1.3,0.2,2,0.3c1.5,0.1,3.2,0.1,3.7,0.1c1.3,0,4.1-0.3,4.7-0.3
	c0.3,0,0.5,0.2,0.5,0.4c0,0,0,0,0,0.1c0,0.7-4.9,1.8-10.8,1.8c-0.9,0-1.9,0-2.8-0.2c-0.7-0.1-1.4-0.4-1.4-1.1s0.9-1.2,1.8-1.8
	s2.4-1.5,3.8-2.3c2.8-1.7,5.3-3.3,5.3-4.3c0-0.1-0.1-0.2-0.3-0.3c-0.3-0.1-0.5-0.1-0.8-0.1c-1.7,0.1-3.4,0.4-5,0.8
	c-0.8,0.2-1.5,0.4-2,0.6l-0.7,0.2c-0.1,0-0.3,0.1-0.4,0.1c-0.2,0-0.4-0.1-0.5-0.3c0-0.1-0.1-0.1-0.1-0.2v-0.1c0-0.6,1.4-2,1.9-2.1
	c0.6-0.1,1.2-0.2,1.8-0.3c0.5,0,1,0,1.4,0c5.4,0,7.9,0.3,7.9,1.9c0,1.2-0.9,1.8-3.1,3l-4.5,2.2c-1.5,0.8-2.3,1.2-2.7,1.4
	C244.2,58.7,244.1,58.8,244,58.9"/>
<path class="st1" d="M257.4,51.3c0-0.3,0.2-0.5,0.5-0.5c0,0,0,0,0,0c0.4,0,1.2,0.2,2.9,0.3c0-3.5-0.2-5.3-0.2-5.9
	c0-0.4,0.1-0.8,0.6-0.8c0.4,0,0.9,0.2,1.3,0.3c0.4,0.2,1,0.6,1,1.1c-0.3,1.8-0.5,3.5-0.6,5.3c3-0.1,3.6-0.2,3.7-0.2
	c0.3,0,0.5,0.2,0.6,0.5c0,0,0,0.1,0,0.1c0,0.8-1.6,0.9-4.3,1.1c-0.1,1-0.2,2.4-0.2,4.1c0,2.3,0.1,3.2,0.1,4c0,0.2-0.1,0.5-0.3,0.6
	c-0.1,0-0.2,0.1-0.3,0.1H262c-0.3,0-0.7-0.1-1-0.2c-0.3-0.1-0.6-0.3-0.6-0.7c0-0.6,0.4-3.6,0.4-6.1v-1.6h-2.2
	C257.8,52.8,257.4,51.6,257.4,51.3"/>
<path class="st1" d="M280.6,49.7c2.4,0,4.2,1.1,4.2,3.7c0,3.6-4.6,8.1-8.1,8.1c-1.2,0-3.8-0.4-3.8-1.9c0-0.3,0.2-0.5,0.5-0.6
	c0.1,0,0.2,0,0.3,0.1l0.2,0.1c0.2,0.1,0.3,0.2,0.5,0.3c0.9,0.3,1.8,0.4,2.6,0.4c3.2,0,4.8-2,4.8-5.1c0-2.3-1.4-3.2-2.9-3.2
	c-3.3-0.2-6.1,2.4-6.3,5.7c0,0.1,0,0.3,0,0.4l-0.4,11.4c0,0.4-0.1,0.8-0.6,0.8c-0.3,0-1.7-0.4-1.7-1.2c0.2-2.4,0.3-4.9,0.3-7.3v-7.3
	c0-1.1,0-1.3,0-1.6s-0.1-0.6-0.1-1.8c0-0.3,0.2-0.6,0.5-0.6c0,0,0,0,0,0c0.4,0,2.4,0.6,2.4,1.8c0,0.4,0,0.8-0.1,1.1
	C275,50.8,277.8,49.7,280.6,49.7"/>
<path class="st1" d="M297.8,49.7l0.1,0.5c0.1,0.4,0.2,0.8,0.3,1.2c0.3,1,0.8,1.8,1.4,1.9c0.1,0,0.3,0.1,0.4,0.1
	c0.1,0.1,0.2,0.2,0.2,0.4c0,0.2-0.1,0.4-0.3,0.5c-0.1,0.1-0.3,0.2-0.5,0.2c-0.4,0.1-0.8,0.2-1.1,0.2c-1.1,0-2.1-0.5-2.7-1.4
	l-1.6,2.3c-0.3,0.4-0.8,1.2-1.4,2.1c-0.5,0.8-0.9,1.8-1.2,2.8c0,0.2-0.1,0.3-0.1,0.5c-0.1,0.2-0.3,0.3-0.5,0.3
	c-0.3,0-0.6-0.1-0.8-0.1c-0.3-0.1-0.7-0.3-0.7-0.8c0-0.3,0.4-3.2,0.4-5c0-2.1-0.2-3.4-0.2-3.8c0-0.6,0.5-0.8,0.9-0.8
	s1.9,0.5,1.9,1.4c0,0.9-0.1,1.8-0.3,2.7l-0.3,1.9c0.3-0.6,0.7-1.3,1.1-1.8c0.7-1,1.4-1.8,2.2-2.8c0.1-1.3,1-2.8,2.1-2.8
	c0.3,0,0.5,0.2,0.5,0.4C297.8,49.6,297.8,49.6,297.8,49.7L297.8,49.7"/>
<path class="st1" d="M310.5,51.6c-3,0-5.2,2.8-5.2,5.7c0.1,1.4,1.3,2.5,2.7,2.4c3,0,5.7-2.2,6-2.9c0.1-0.4,0.1-0.8,0.1-1.2
	c-0.1-1.1-0.3-2.1-0.8-3.1C312.4,51.9,311.4,51.6,310.5,51.6 M314.3,51.7c0.5-0.1,1-0.3,1.4-0.5l0.4-0.2l0.3,3.3
	c0.4,3.3,1,5.5,1.4,5.5c0.3,0,0.5,0.2,0.5,0.4c0,0,0,0.1,0,0.1c0,0.1-0.1,0.2-0.1,0.3c-0.1,0.1-0.2,0.1-0.3,0.2
	c-0.2,0.1-0.5,0.3-0.7,0.4c-0.4,0.2-0.9,0.4-1.4,0.5c-0.6,0-0.8-0.5-1.4-3.7c-2.1,2-5,3.1-7.9,3.1c-1.8,0-4.4-0.5-4.4-3.1
	c0-3.8,5.3-8,8.9-8C312.4,50.1,313.6,50.7,314.3,51.7L314.3,51.7z"/>
<path class="st1" d="M334.5,51.8c-0.4,0.2-0.9,0.3-1.5,0.6c-1.4,0.6-2.7,1.4-3.8,2.4c1.3,1.7,2.8,3.2,4.4,4.5
	c0.5,0.4,0.8,0.6,1.1,0.8c0.3,0.1,0.4,0.4,0.5,0.7c0,0.1-0.1,0.3-0.2,0.4c-0.1,0.1-0.2,0.1-0.2,0.2c-0.2,0.1-0.4,0.2-0.6,0.3
	c-0.4,0.2-0.9,0.3-1.4,0.3c-1,0-2.9-2.4-5.1-5.3c-0.6,0.8-1.1,1.6-1.6,2.4s-1,1.8-1.4,2.5s-0.8,1.4-1.1,1.8
	c-0.1,0.2-0.3,0.4-0.4,0.6c-0.1,0.2-0.3,0.3-0.5,0.3c-0.5,0-1.3-1-1.3-1.5s1.4-2.5,5.5-7.1c-1.1-1.3-2.3-2.4-3.7-3.4
	c-0.5-0.4-1-0.7-1.3-0.9c-0.1-0.1-0.3-0.2-0.4-0.3c-0.1-0.1-0.2-0.3-0.2-0.4c0-0.1,0.1-0.2,0.1-0.3c0.1-0.1,0.1-0.1,0.2-0.1
	c0.2-0.1,0.3-0.1,0.5-0.1c0.4-0.1,0.7-0.1,1.1-0.1c0.4,0,0.8,0,1.2,0.1c0.5,0.1,1,0.3,1.3,0.7l2.8,3.2c2.6-2.9,4.5-4.1,5.4-4.1
	c0.7,0.1,1.2,0.7,1.3,1.4c0,0.2-0.1,0.4-0.3,0.5C334.8,51.7,334.6,51.8,334.5,51.8"/>
<path class="st1" d="M342.7,47.6c-0.4,0-0.7-0.1-1.1-0.3c-0.3-0.2-0.8-0.4-0.8-0.9c-0.1-0.9-0.2-1.8-0.2-2.8c0-0.2,0.1-0.3,0.2-0.4
	c0.1,0,0.1,0,0.2,0h0.1c0.7,0.1,1.4,0.4,1.9,0.8v0.1l0,0v0.1v0.2V45c0,0.4,0,0.9,0,1.3c0,0.3,0,0.6,0,0.8
	C343,47.4,342.8,47.6,342.7,47.6 M340.3,51.1c0-0.2-0.1-0.3-0.2-0.5l-0.1-0.2c0-0.1,0-0.1,0-0.2c0-0.3,0.2-0.4,0.5-0.4
	c0.5,0,1,0.2,1.4,0.3c0.3,0.1,0.6,0.2,0.8,0.4c0.3,0.1,0.4,0.4,0.5,0.7c0,1.5-0.4,5.3-0.4,7.3c0,0.9,0.1,1.6,0.1,2.3
	c0,0.3-0.2,0.6-0.5,0.6c0,0,0,0-0.1,0c-0.3,0-0.7-0.1-1-0.2c-0.3-0.1-0.9-0.4-0.9-0.9v-6.2c0.1-1,0-1.9-0.2-2.9L340.3,51.1z"/>
<path class="st1" d="M348.5,58.2c0.1,0,0.1,0,0.2,0l0.1,0.1l0.4,0.2c0.3,0.2,0.8,0.4,1.3,0.6c1.3,0.5,2.6,0.8,4,0.8
	c1.4,0,2.7-0.2,2.7-2.2c0-0.5-0.4-0.8-1.2-1.1c-0.5-0.1-0.9-0.2-1.4-0.2c-0.5,0-1.1-0.1-1.6-0.1c-2.1-0.1-4.7-0.3-4.7-2.3
	c0-3.4,5.9-4.2,8-4.2c1.9,0,3.5,0.5,3.5,1.8c0,0.2,0,0.4-0.1,0.6c0,0.1-0.1,0.2-0.2,0.3c-0.1,0.1-0.2,0.2-0.4,0.2
	c-0.1,0-0.1,0-0.2,0l-0.4-0.2c-0.3-0.2-0.6-0.3-0.9-0.5c-1.1-0.5-2.3-0.7-3.5-0.7c-1.4,0-3.2,0.3-3.2,1.6c0,0.4,0.3,0.7,1.2,0.9
	c1,0.2,1.9,0.3,2.9,0.4c2.3,0.3,4.9,0.6,4.9,2.6c0,3.6-5,4.5-7.4,4.5c-3.2,0-4.5-0.6-4.5-2.2c0-0.2,0-0.4,0.1-0.6
	C348.2,58.4,348.3,58.2,348.5,58.2"/>
<path class="st1" d="M133.3,91.7c0,0.1-0.1,0.2-0.2,0.2c-0.2,0-0.4-0.1-0.5-0.1c-0.2-0.1-0.4-0.2-0.4-0.4c0-0.5-0.1-0.9-0.1-1.4
	c0-0.1,0-0.2,0.1-0.2h0.1h0.1c0.4,0,0.7,0.2,1,0.4c0,0,0,0.1,0,0.1v1.1C133.4,91.4,133.4,91.6,133.3,91.7 M132.1,95.2
	c0-0.5,0-1-0.1-1.5c0-0.1,0-0.2-0.1-0.3v-0.1c0,0,0-0.1,0-0.1c0-0.1,0.1-0.2,0.3-0.2c0.2,0,0.5,0.1,0.7,0.2c0.1,0,0.3,0.1,0.4,0.2
	c0.1,0.1,0.2,0.2,0.2,0.4c0,0.8-0.2,2.7-0.2,3.7c0,0.4,0,0.8,0,1.1c0,0.2-0.1,0.3-0.3,0.3c0,0,0,0,0,0c-0.2,0-0.3,0-0.5-0.1
	c-0.2-0.1-0.4-0.2-0.4-0.5L132.1,95.2z"/>
<path class="st1" d="M137.2,96.4c0.7-1.3,2.1-3.1,3.5-3.1c0.8,0,1,0.6,1.2,1.5l0.6,2.6c0,0.1,0.1,0.2,0.1,0.3
	c0.1,0.1,0.1,0.2,0.2,0.2c0.1,0,0.2,0.1,0.2,0.2c0,0.4-1,0.8-1.2,0.8c-0.2,0-0.3-0.1-0.3-0.2c-0.1-0.2-0.1-0.4-0.2-0.5l-0.5-2.2
	c-0.3-1.2-0.4-1.5-0.8-1.5c-0.6,0-2,1.6-2.7,3.7c0,0.1,0,0.2-0.1,0.2c0,0.1-0.1,0.1-0.2,0.1c-0.2,0-0.3,0-0.4-0.1
	c-0.2-0.1-0.4-0.2-0.4-0.5c0.1-1,0.2-2,0.2-3c0-0.6,0-1.1-0.1-1.7c0-0.1,0.1-0.2,0.2-0.2c0,0,0,0,0,0c0.2,0,0.4,0.1,0.6,0.2
	c0.1,0,0.2,0.1,0.4,0.2c0.1,0,0.1,0.1,0.1,0.1c0,0,0.1,0.1,0.1,0.2c0,0.3-0.1,1.2-0.2,1.9L137.2,96.4"/>
<path class="st1" d="M155.9,96.8c0-0.7,0.1-1.4,0.1-2.1c-0.7-0.5-1.6-0.8-2.4-0.8c-1.4,0.1-2.5,1.2-2.4,2.6c0,0,0,0,0,0
	c0,1,0.7,1.3,1.6,1.3C153.8,97.8,154.9,97.4,155.9,96.8 M155.9,92.1c0-2.3-0.2-4-0.2-4.2c0-0.1,0.1-0.3,0.3-0.3c0,0,0,0,0,0
	c0.3,0,0.5,0.1,0.7,0.2c0.3,0.1,0.5,0.3,0.6,0.6c0,0.1,0,0.4-0.1,0.8l-0.1,1.7c-0.1,1.3-0.2,2.9-0.2,4.1c0,1.8,0.1,2.8,0.1,4.1
	c0,0.1-0.1,0.2-0.2,0.2c-0.2,0-0.4-0.1-0.5-0.2c-0.3-0.1-0.4-0.4-0.4-0.7c0-0.5,0-0.8,0-1c-1.3,0.7-2.8,1.1-4.3,1.2
	c-0.9,0-1.9-0.3-1.9-1.5c0.4-2.2,2.2-3.8,4.4-4c0.7,0,1.4,0.3,1.9,0.7L155.9,92.1z"/>
<path class="st1" d="M163.8,95.3c0.2,0,0.4-0.1,0.6-0.2c0.1,0,0.1-0.1,0.1-0.3c0-0.7-0.4-1-1-1c-1.2-0.1-2.3,0.7-2.7,1.9L163.8,95.3
	 M160.7,96.5c0,1.3,1.4,1.5,2.5,1.5c0.8,0,1.6-0.1,2.4-0.3c0.3-0.1,0.5-0.2,0.7-0.2l0.2-0.1h0.1h0.1c0.2,0,0.3,0.1,0.3,0.3
	c0,0,0,0,0,0c0,0.1,0,0.2-0.1,0.3l-0.2,0.1l-0.2,0.1c-1.3,0.5-2.7,0.7-4.1,0.7c-0.3,0-0.7,0-1,0c-0.3,0-0.6-0.1-0.9-0.2
	c-0.7-0.2-1.1-0.9-1-1.5c0.3-2.3,2.4-4,4.7-3.9c1.5,0,1.7,0.5,1.7,1.9c0.1,0,0.2,0.2,0.2,0.3c0,0.1-0.1,0.2-0.2,0.3
	c-0.2,0.1-0.3,0.1-0.5,0.1L160.7,96.5z"/>
<path class="st1" d="M169.7,96.4c0.7-1.3,2.1-3.1,3.5-3.1c0.8,0,1,0.6,1.2,1.5l0.6,2.6c0,0.1,0.1,0.2,0.1,0.3
	c0.1,0.1,0.1,0.2,0.2,0.2c0.1,0,0.2,0.1,0.2,0.2c0,0,0,0,0,0c0,0.4-1,0.8-1.2,0.8c-0.2,0-0.3-0.1-0.3-0.2c-0.1-0.2-0.1-0.4-0.2-0.5
	l-0.5-2.2c-0.3-1.2-0.4-1.5-0.8-1.5c-0.6,0-2,1.6-2.7,3.7c0,0.1,0,0.2-0.1,0.2c0,0.1-0.1,0.1-0.2,0.1c-0.2,0-0.3,0-0.4-0.1
	c-0.2-0.1-0.4-0.2-0.4-0.5c0.1-1,0.2-2,0.2-3c0-0.6,0-1.1-0.1-1.7c0-0.1,0.1-0.2,0.2-0.2c0,0,0,0,0,0c0.2,0,0.4,0.1,0.6,0.2
	c0.1,0,0.2,0.1,0.4,0.2c0.1,0,0.1,0.1,0.1,0.1c0,0,0.1,0.1,0.1,0.2c0,0.3-0.1,1.2-0.2,1.9L169.7,96.4"/>
<path class="st1" d="M185.9,96.8l3.5-6.5c0.2-0.3,0.5-0.4,0.8-0.4c0.1,0,0.2,0.1,0.3,0.2c0,0.1,0.1,0.1,0.1,0.2l0.1,0.2l2.3,6.3
	c0.2,0.4,0.3,0.5,0.4,0.5c0.6,0,2.7-3.1,2.7-6.4c0-0.9-0.1-1.8-0.3-2.6c0-0.3,0.2-0.3,0.4-0.3c1.1,0,1.4,1.5,1.4,2.3
	c0,3.4-3.9,8.8-4.9,8.8c-0.4,0-0.7-0.5-0.9-1l-2.2-6l-2.7,5.1c-0.7,1.3-1.1,2-1.5,2c-0.2,0-0.3-0.1-0.4-0.3
	c-0.1-0.2-0.2-0.5-0.2-0.7l-1.7-7.3c-0.1-0.6-0.4-1.1-0.8-1.5l-0.1-0.2l-0.1-0.1c-0.1-0.1-0.2-0.2-0.2-0.3c0-0.1,0.1-0.2,0.2-0.2
	c0.1,0,0.2,0,0.2,0c0.4,0,0.8,0.1,1.1,0.2c0.5,0.1,0.8,0.4,1,0.8L185.9,96.8"/>
<path class="st1" d="M201.1,91.7c0,0.1-0.1,0.2-0.2,0.2c-0.2,0-0.4-0.1-0.5-0.1c-0.2-0.1-0.4-0.2-0.4-0.4c0-0.5-0.1-0.9-0.1-1.4
	c0-0.1,0-0.2,0.1-0.2h0.1h0.1c0.4,0,0.7,0.2,1,0.4c0,0,0,0.1,0,0.1v1.1C201.2,91.4,201.2,91.6,201.1,91.7 M199.9,95.2
	c0-0.5,0-1-0.1-1.5c0-0.1,0-0.2-0.1-0.3v-0.1c0,0,0-0.1,0-0.1c0-0.1,0.1-0.2,0.3-0.2c0.2,0,0.5,0.1,0.7,0.2c0.1,0,0.3,0.1,0.4,0.2
	c0.1,0.1,0.2,0.2,0.2,0.4c0,0.8-0.2,2.7-0.2,3.7c0,0.4,0,0.8,0,1.1c0,0.2-0.1,0.3-0.3,0.3c0,0,0,0,0,0c-0.2,0-0.3,0-0.5-0.1
	c-0.2-0.1-0.4-0.2-0.4-0.5L199.9,95.2z"/>
<path class="st1" d="M204.1,91.2c0-1.1-0.1-2.2-0.2-3.3c0-0.1,0.1-0.3,0.3-0.3c0,0,0,0,0,0c0.3,0,0.5,0.1,0.8,0.2
	c0.1,0.1,0.3,0.1,0.4,0.2c0.1,0.1,0.2,0.2,0.2,0.3c0,2.3-0.2,3.8-0.2,7.4c0,2.2,0.1,2.6,0.1,2.7s-0.1,0.3-0.3,0.3
	c-0.2,0-0.3,0-0.5-0.1c-0.2-0.1-0.4-0.2-0.4-0.5L204.1,91.2"/>
<path class="st1" d="M213.2,96.5c0.6-1.2,2.1-3,3.2-3c0.5,0,0.9,0.3,1,1l0.6,2.9c0,0.2,0.1,0.3,0.1,0.4c0.1,0.1,0.1,0.1,0.1,0.1
	c0.2,0,0.3,0.1,0.3,0.3s-0.9,0.8-1.3,0.8c-0.2,0-0.3-0.1-0.3-0.3s-0.1-0.5-0.3-1.1c-0.6-2.7-0.8-2.9-1.1-2.9c-0.7,0-2.4,2.6-2.6,3.4
	c-0.1,0.4-0.2,0.5-0.4,0.5c-0.1,0-0.3,0-0.4-0.1c-0.2-0.1-0.3-0.2-0.3-0.4c0.1-0.8,0.2-1.6,0.2-2.4c0-0.3,0-0.5-0.1-0.8
	c-0.1-0.1-0.1-0.1-0.3-0.1c-0.7,0-2.1,1.6-2.6,3.4v0.1v0.1c0,0.1-0.1,0.1-0.2,0.2c-0.1,0-0.3,0-0.4-0.1c-0.2,0-0.3-0.2-0.3-0.4
	c0-0.2,0.2-1.7,0.2-3.1c0-0.5,0-1-0.1-1.5c0-0.1,0.1-0.3,0.2-0.3c0,0,0,0,0,0c0.3,0,0.5,0.1,0.8,0.2c0.2,0.1,0.4,0.3,0.5,0.6
	c0,0.6-0.1,1.2-0.3,1.8l-0.1,0.5c0.8-1.3,2.2-2.6,3.1-2.6c0.5,0,0.9,0.2,0.9,1.3C213.3,95.7,213.3,96.1,213.2,96.5"/>
<path class="st1" d="M224.6,95.3c0.2,0,0.4-0.1,0.6-0.2c0.1,0,0.1-0.1,0.1-0.3c0-0.7-0.4-1-1-1c-1.2-0.1-2.3,0.7-2.7,1.9L224.6,95.3
	 M221.5,96.5c0,1.3,1.4,1.5,2.5,1.5c0.8,0,1.6-0.1,2.4-0.3c0.3-0.1,0.5-0.2,0.7-0.2l0.2-0.1h0.1h0.1c0.2,0,0.3,0.1,0.3,0.3
	c0,0,0,0,0,0c0,0.1,0,0.2-0.1,0.3l-0.2,0.1l-0.2,0.1c-1.3,0.5-2.7,0.7-4.1,0.7c-0.3,0-0.7,0-1,0c-0.3,0-0.6-0.1-0.9-0.2
	c-0.7-0.2-1.1-0.9-1-1.5c0.3-2.3,2.4-4,4.7-3.8c1.5,0,1.7,0.5,1.7,1.9c0.1,0,0.2,0.2,0.2,0.3c0,0.1-0.1,0.2-0.2,0.3
	c-0.2,0.1-0.3,0.1-0.5,0.1L221.5,96.5z"/>
<path class="st1" d="M230.8,96.3c0.2-0.3,0.4-0.6,0.6-0.9c0.3-0.5,0.7-0.9,1.1-1.4c0-0.7,0.5-1.4,1-1.4c0.1,0,0.2,0.1,0.3,0.2
	c0,0,0,0,0,0c0,0,0,0,0,0.1v0.2c0,0.2,0.1,0.4,0.1,0.6c0.1,0.5,0.4,0.9,0.7,0.9h0.1h0.1c0.1,0,0.2,0.1,0.2,0.2c0,0,0,0.1,0,0.1
	c0,0.1,0,0.2-0.1,0.2c-0.1,0.1-0.1,0.1-0.2,0.1c-0.2,0.1-0.4,0.1-0.6,0.1c-0.5,0-1-0.2-1.3-0.7l-0.8,1.1c-0.1,0.2-0.4,0.6-0.7,1
	c-0.3,0.4-0.5,0.9-0.6,1.4c0,0.1,0,0.2-0.1,0.3c0,0.1-0.1,0.1-0.2,0.1c-0.1,0-0.3,0-0.4-0.1c-0.1,0-0.3-0.2-0.3-0.4s0.2-1.6,0.2-2.5
	c0-1-0.1-1.7-0.1-1.9s0.3-0.4,0.4-0.4s0.9,0.2,0.9,0.7c0,0.4-0.1,0.9-0.1,1.3L230.8,96.3"/>
<path class="st1" d="M236.1,97.4c0-0.1,0.1-0.2,0.2-0.2h0.1h0.1l0.2,0.1c0.2,0.1,0.4,0.2,0.7,0.3c0.6,0.3,1.3,0.4,2,0.4
	c0.7,0,1.4-0.1,1.4-1.1c0-0.3-0.2-0.4-0.6-0.5c-0.2-0.1-0.5-0.1-0.7-0.1l-0.8-0.1c-0.5,0-1.1-0.1-1.6-0.2c-0.4-0.1-0.8-0.5-0.8-0.9
	c0-0.9,0.8-1.4,1.6-1.7c0.8-0.3,1.6-0.4,2.4-0.4c1,0,1.7,0.2,1.7,0.9c0,0.1,0,0.2-0.1,0.3c0,0.1,0,0.1-0.1,0.2
	c0,0.1-0.1,0.1-0.2,0.1h-0.1h-0.1l-0.1-0.1c-0.1-0.1-0.3-0.2-0.4-0.2c-0.6-0.2-1.2-0.3-1.8-0.3c-0.4,0-0.7,0.1-1.1,0.2
	c-0.3,0.1-0.5,0.3-0.5,0.7c0,0.2,0.2,0.3,0.6,0.4c0.5,0.1,1,0.2,1.5,0.2c0.6,0,1.1,0.2,1.6,0.3c0.5,0.1,0.8,0.5,0.8,1
	c0,1.8-2.5,2.3-3.7,2.3c-1.6,0-2.2-0.3-2.2-1.1C236.1,97.6,236.1,97.5,236.1,97.4"/>
<path class="st1" d="M250.1,96.8c0-0.7,0.1-1.4,0.1-2.1c-0.7-0.5-1.6-0.8-2.4-0.8c-1.4,0.1-2.5,1.2-2.4,2.6c0,0,0,0,0,0
	c0,1,0.7,1.3,1.6,1.3C248,97.8,249.1,97.4,250.1,96.8 M250.1,92.1c0-2.3-0.2-4-0.2-4.2c0-0.1,0.1-0.3,0.3-0.3c0,0,0,0,0,0
	c0.3,0,0.5,0.1,0.7,0.2c0.3,0.1,0.5,0.3,0.6,0.6c0,0.1,0,0.4-0.1,0.8l-0.1,1.7c-0.1,1.3-0.2,2.9-0.2,4.1c0,1.8,0.1,2.8,0.1,4.1
	c0,0.1-0.1,0.2-0.2,0.2c-0.2,0-0.4-0.1-0.5-0.2c-0.3-0.1-0.4-0.4-0.4-0.7c0-0.5,0-0.8,0-1c-1.3,0.7-2.8,1.1-4.3,1.2
	c-0.9,0-1.9-0.3-1.9-1.5c0.4-2.2,2.2-3.8,4.4-4c0.7,0,1.4,0.3,1.9,0.7L250.1,92.1z"/>
<path class="st1" d="M257.2,97.9c1.1,0.1,2.1-0.7,2.2-1.8c0,0,0-0.1,0-0.1c0-1.3-0.9-1.9-2.3-1.9c-1.1-0.1-2.1,0.7-2.3,1.9
	C254.8,97.2,256.1,97.9,257.2,97.9 M256.3,98.7c-1.8,0-2.7-0.7-2.7-2.1c0-2,2.3-3.3,4.3-3.3c1.3,0,2.9,0.4,2.9,2
	C260.7,96.5,259.6,98.7,256.3,98.7L256.3,98.7z"/>
<path class="st1" d="M264.3,96.3c0.2-0.3,0.4-0.6,0.6-0.9c0.4-0.5,0.7-0.9,1.1-1.4c0-0.7,0.5-1.4,1-1.4c0.1,0,0.2,0.1,0.3,0.2
	c0,0,0,0,0,0c0,0,0,0,0,0.1v0.2c0,0.2,0.1,0.4,0.1,0.6c0.1,0.5,0.4,0.9,0.7,0.9h0.1h0.1c0.1,0,0.1,0.1,0.1,0.2c0,0.1,0,0.2-0.1,0.2
	c-0.1,0.1-0.1,0.1-0.2,0.1c-0.2,0.1-0.4,0.1-0.6,0.1c-0.5,0-1.1-0.2-1.4-0.7l-0.8,1.1c-0.1,0.2-0.4,0.6-0.7,1
	c-0.3,0.4-0.5,0.9-0.6,1.4c0,0.1,0,0.2-0.1,0.3c0,0.1-0.1,0.1-0.2,0.1c-0.1,0-0.3,0-0.4-0.1c-0.1,0-0.3-0.2-0.3-0.4s0.2-1.6,0.2-2.5
	c0-1-0.1-1.7-0.1-1.9s0.3-0.4,0.5-0.4s0.9,0.2,0.9,0.7c0,0.4-0.1,0.9-0.1,1.3L264.3,96.3"/>
<path class="st1" d="M269.6,94.6c-0.4,0-0.7-0.3-0.7-0.7c0-0.1,0-0.2,0-0.2c0-0.1,0.1-0.2,0.3-0.2c0.1,0,0.7,0.1,1.2,0.1
	c0-0.4,0-1,0-1.8c-0.2-2,1.2-3.9,3.2-4.3c0.4,0,0.9,0.1,0.9,0.7c0,0.1,0,0.2,0,0.3c0,0.1-0.1,0.2-0.3,0.3c-0.1,0-0.2,0-0.3-0.1
	l-0.3-0.1c-0.2-0.1-0.4-0.2-0.7-0.2c-0.9,0-1.3,0.9-1.3,5.3h0.9c0.6,0,1.2-0.1,1.3-0.1c0.1,0,0.2,0.1,0.2,0.2c0,0,0,0,0,0
	c0,0.1,0,0.1-0.1,0.2c-0.1,0-0.1,0.1-0.2,0.1c-0.2,0.1-0.4,0.1-0.5,0.2c-0.5,0.1-1.1,0.2-1.6,0.2c-0.1,2.6-0.2,5.2-0.2,8.3
	c0,0.1,0,0.2-0.1,0.2c-0.1,0-0.1,0.1-0.2,0.1c-0.1,0.1-0.2,0.1-0.3,0.1c-0.2,0-0.3-0.1-0.3-0.3c0,0,0,0,0-0.1c0-0.2,0-0.9,0-2.1
	c0-3,0-4.6-0.1-6.2L269.6,94.6"/>
<path class="st1" d="M279,95.3c0.2,0,0.4-0.1,0.6-0.2c0,0,0.1-0.1,0.1-0.3c0-0.7-0.4-1-1-1c-1.2-0.1-2.3,0.8-2.6,2L279,95.3
	 M275.9,96.5c0,1.3,1.4,1.5,2.5,1.5c0.8,0,1.6-0.1,2.4-0.3c0.3-0.1,0.5-0.2,0.7-0.2l0.2-0.1h0.1h0.1c0.2,0,0.3,0.1,0.3,0.3
	c0,0,0,0,0,0c0,0.1,0,0.2-0.1,0.3l-0.1,0.1l-0.2,0.1c-1.3,0.5-2.7,0.7-4.1,0.7c-0.3,0-0.7,0-1,0c-0.3,0-0.6-0.1-0.9-0.2
	c-0.7-0.2-1.1-0.9-1-1.5c0.3-2.3,2.4-4,4.7-3.8c1.5,0,1.7,0.5,1.7,1.9c0.1,0,0.2,0.2,0.2,0.3c0,0.1-0.1,0.2-0.2,0.3
	c-0.2,0.1-0.3,0.1-0.5,0.1L275.9,96.5z"/>
<path class="st1" d="M285.3,96.3c0.2-0.3,0.4-0.6,0.6-0.9c0.3-0.5,0.7-0.9,1.1-1.4c0-0.7,0.5-1.4,1-1.4c0.1,0,0.2,0.1,0.3,0.2
	c0,0,0,0,0,0c0,0,0,0,0,0.1v0.2c0,0.2,0.1,0.4,0.1,0.6c0.2,0.5,0.4,0.9,0.7,0.9h0.1h0.1c0.1,0,0.1,0.1,0.1,0.2c0,0.1,0,0.2-0.1,0.2
	c-0.1,0.1-0.1,0.1-0.2,0.1c-0.2,0.1-0.4,0.1-0.6,0.1c-0.5,0-1-0.2-1.3-0.7l-0.8,1.1c-0.1,0.2-0.4,0.6-0.7,1
	c-0.3,0.4-0.5,0.9-0.6,1.4c0,0.1,0,0.2-0.1,0.3c0,0.1-0.1,0.1-0.2,0.1c-0.1,0-0.3,0-0.4-0.1c-0.1,0-0.3-0.2-0.3-0.4s0.2-1.6,0.2-2.5
	c0-1-0.1-1.7-0.1-1.9s0.3-0.4,0.5-0.4s0.9,0.2,0.9,0.7c0,0.4-0.1,0.9-0.1,1.3L285.3,96.3"/>
<path class="st1" d="M301.3,94.3c0.9,0,3,0,3.9,0c0.1,0,0.2,0,0.2,0.1c0.1,0,0.1,0.1,0.1,0.2c0,0.1,0,0.2-0.1,0.2
	c-0.1,0-0.1,0.1-0.2,0.1c-0.3,0.1-0.5,0.1-0.8,0.1c-0.7,0.1-1.9,0.2-3.6,0.3c-1.4,2.2-3.6,5.2-4.6,5.2c-0.7-0.1-1.2-0.6-1.4-1.3
	c0-0.1,0.1-0.3,0.2-0.3c0,0,0,0,0,0l0.2,0.1l0.2,0.1c0.1,0.1,0.3,0.1,0.4,0.1c0.5,0,2.4-1.6,3.8-3.7c-0.4-0.1-0.8-0.1-1.1-0.1
	c-0.6,0-1.7,0-1.7-1.4c0-0.1,0-0.3,0.2-0.3c0,0,0.1,0,0.1,0.1c0.2,0.1,0.3,0.2,0.5,0.3c0.9,0.2,1.8,0.3,2.8,0.3c0.9-1.4,2-3,2.8-4.4
	c-0.4-0.5-0.9-0.9-1.5-1c-0.1,0-0.2-0.1-0.2-0.2c0,0,0,0,0,0c0-0.1,0.1-0.2,0.2-0.3c0.1,0,0.3-0.1,0.4-0.1c0.7,0,1.4,0.1,2.1,0.4
	c0.4,0.4,0.8,0.9,1,1.4c0.4,0.7,0.8,1.6,1.3,2.6c0.7,1.7,1.6,3.4,2.7,4.9h0.1c0.1,0,0.2,0.1,0.2,0.2c0,0.4-0.9,0.7-1.3,0.7
	s-0.5-0.2-0.7-0.6s-0.6-1.2-1.2-2.5c-1-2.1-1.8-3.5-2.7-5L301.3,94.3"/>
<path class="st1" d="M312.6,96.3c0.2-0.3,0.4-0.6,0.6-0.9c0.3-0.5,0.7-0.9,1.1-1.4c0-0.7,0.5-1.4,1-1.4c0.1,0,0.2,0.1,0.3,0.2
	c0,0,0,0,0,0c0,0,0,0,0,0.1v0.2c0,0.2,0.1,0.4,0.1,0.6c0.2,0.5,0.4,0.9,0.7,0.9h0.1h0.1c0.1,0,0.1,0.1,0.1,0.2c0,0.1,0,0.2-0.1,0.2
	c-0.1,0.1-0.1,0.1-0.2,0.1c-0.2,0.1-0.4,0.1-0.6,0.1c-0.5,0-1.1-0.2-1.4-0.7l-0.8,1.1c-0.1,0.2-0.4,0.6-0.7,1
	c-0.3,0.4-0.5,0.9-0.6,1.4c0,0.1,0,0.2-0.1,0.3c0,0.1-0.1,0.1-0.2,0.1c-0.1,0-0.3,0-0.4-0.1c-0.1,0-0.3-0.2-0.3-0.4s0.2-1.6,0.2-2.5
	c0-1-0.1-1.7-0.1-1.9s0.3-0.4,0.5-0.4s0.9,0.2,0.9,0.7c0,0.4-0.1,0.9-0.1,1.3L312.6,96.3"/>
<path class="st1" d="M321.7,98c0.7,0,1.5-0.2,2.1-0.5c0.3-0.1,0.5-0.3,0.7-0.3l0.2-0.1c0.1,0,0.1,0,0.2-0.1c0.1,0,0.3,0.1,0.3,0.2
	c0,0,0,0,0,0c0,0.6-2.5,1.5-4.8,1.5c-1.4,0-2.8-0.3-2.8-1.8c0-2.3,3.2-4,5.1-4c0.3,0,0.7,0,1,0.2c0.5,0.1,0.7,0.6,0.6,1c0,0,0,0,0,0
	c0,0.1-0.1,0.2-0.2,0.2h-0.1l-0.2-0.1l-0.5-0.1c-0.5-0.1-1-0.2-1.6-0.2c-1.4-0.1-2.6,1-2.7,2.4C319.2,97.8,320.6,98,321.7,98"/>
<path class="st1" d="M332.4,95c0-0.2-0.1-0.3-0.1-0.5c0-0.1-0.1-0.1-0.1-0.2c-0.4-0.3-0.9-0.4-1.4-0.4c-1.5,0.1-2.6,1.3-2.6,2.8
	c0.1,0.7,0.7,1.2,1.4,1.2c1.2,0,2.3-0.6,3-1.5c0-0.2,0.1-0.4,0.1-0.6C332.5,95.6,332.5,95.3,332.4,95 M331.1,93.1
	c0.6,0,1.2,0.3,1.6,0.8c0.2-0.1,0.5-0.1,0.7-0.3l0.2-0.1l0.2,1.7c0.1,0.7,0.2,1.3,0.3,2c0,0.2,0.1,0.4,0.2,0.6
	c0,0.1,0.1,0.1,0.1,0.1c0.2,0,0.3,0.2,0.3,0.3c0,0.1,0,0.1-0.1,0.2l-0.1,0.1c-0.1,0.1-0.2,0.1-0.4,0.2c-0.2,0.1-0.4,0.2-0.7,0.2
	c-0.2,0-0.3-0.1-0.4-0.3c-0.1-0.5-0.2-1-0.3-1.5c-1.1,1-2.5,1.6-3.9,1.6c-0.9,0-2.2-0.2-2.2-1.5C326.6,95.3,329.3,93.2,331.1,93.1
	L331.1,93.1z"/>
<path class="st1" d="M342.5,96.8c0-0.7,0.1-1.4,0.1-2.1c-0.7-0.5-1.6-0.8-2.4-0.8c-1.4,0-2.5,1.2-2.4,2.6c0,0,0,0,0,0
	c0,1,0.7,1.3,1.6,1.3C340.4,97.8,341.5,97.4,342.5,96.8 M342.5,92.1c0-2.3-0.2-4-0.2-4.2c0-0.1,0.1-0.3,0.3-0.3c0,0,0,0,0,0
	c0.3,0,0.5,0.1,0.7,0.2c0.3,0.1,0.5,0.3,0.5,0.6c0,0.1,0,0.4-0.1,0.8l-0.1,1.7c-0.1,1.3-0.2,2.9-0.2,4.1c0,1.8,0.1,2.8,0.1,4.1
	c0,0.1-0.1,0.2-0.2,0.2c0,0,0,0,0,0c-0.2,0-0.4-0.1-0.5-0.2c-0.3-0.1-0.4-0.4-0.4-0.7c0-0.5,0-0.8,0-1c-1.3,0.7-2.8,1.1-4.3,1.2
	c-0.9,0-1.9-0.3-1.9-1.5c0.4-2.2,2.2-3.8,4.4-4c0.7,0,1.4,0.3,1.9,0.7L342.5,92.1z"/>
<path class="st1" d="M350.4,95.3c0.2,0,0.4-0.1,0.6-0.2c0,0,0.1-0.1,0.1-0.3c0-0.7-0.4-1-1-1c-1.2-0.1-2.3,0.7-2.7,1.9L350.4,95.3
	 M347.3,96.5c0,1.3,1.4,1.5,2.5,1.5c0.8,0,1.6-0.1,2.4-0.3c0.3-0.1,0.5-0.2,0.7-0.2l0.2-0.1h0.1h0.1c0.2,0,0.3,0.1,0.3,0.3
	c0,0,0,0,0,0c0,0.1,0,0.2-0.1,0.3l-0.1,0.1l-0.2,0.1c-1.3,0.5-2.7,0.7-4.1,0.7c-0.3,0-0.7,0-1,0c-0.3,0-0.6-0.1-0.9-0.2
	c-0.7-0.2-1.1-0.9-1-1.5c0.3-2.3,2.4-4,4.7-3.8c1.5,0,1.7,0.5,1.7,1.9c0.1,0,0.2,0.2,0.2,0.3c0,0.1-0.1,0.2-0.2,0.3
	c-0.2,0.1-0.3,0.1-0.5,0.1L347.3,96.5z"/>
<path class="st1" d="M356.4,96.4c0.7-1.3,2.1-3.1,3.5-3.1c0.8,0,1,0.6,1.2,1.5l0.6,2.6c0,0.1,0.1,0.2,0.1,0.3
	c0.1,0.1,0.1,0.2,0.2,0.2c0.1,0,0.2,0.1,0.2,0.2c0,0,0,0,0,0c0,0.4-1,0.8-1.2,0.8c-0.2,0-0.3-0.1-0.3-0.2c-0.1-0.2-0.1-0.4-0.2-0.5
	l-0.5-2.2c-0.3-1.2-0.5-1.5-0.8-1.5c-0.6,0-2,1.6-2.7,3.7c0,0.1,0,0.2-0.1,0.2c0,0.1-0.1,0.1-0.2,0.1c-0.2,0-0.3,0-0.4-0.1
	c-0.2-0.1-0.4-0.2-0.4-0.5c0.1-1,0.2-2,0.2-3c0-0.6,0-1.1-0.1-1.7c0-0.1,0.1-0.2,0.2-0.2c0,0,0,0,0,0c0.2,0,0.4,0.1,0.6,0.2
	c0.1,0,0.2,0.1,0.4,0.2c0.1,0,0.1,0.1,0.1,0.1c0,0,0.1,0.1,0.1,0.2c0,0.3-0.1,1.2-0.2,1.9L356.4,96.4"/>
<path class="st0" d="M241.9,76.2c70.5-0.7,133.1-0.9,133.1-2s-63.3-1.5-133.1-2c-67.2-0.5-120.6,1-120.6,2.2c0,0.3,6.2,0,12.9,0.4
	c3.2,0.2-4.4,1.5-4.4,1.5c9.8,0,21.2-0.1,25,0C176.3,76.7,208,76.6,241.9,76.2z"/>
</svg>
