<?xml version="1.0" encoding="utf-8"?>
<!-- Generator: Adobe Illustrator 21.1.0, SVG Export Plug-In . SVG Version: 6.00 Build 0)  -->
<svg version="1.1" id="Ebene_1" xmlns="http://www.w3.org/2000/svg" xmlns:xlink="http://www.w3.org/1999/xlink" x="0px" y="0px"
	 viewBox="0 0 130 130" style="enable-background:new 0 0 130 130;" xml:space="preserve">
<style type="text/css">
	.st0{fill:#FFFFFF;}
	.st1{fill:#1D1D1B;}
</style>
<circle class="st0" cx="65" cy="65" r="65"/>
<g>
	<g>
		<path class="st1" d="M77,68.6H53c-0.5,0-0.8-0.4-0.8-0.8v-3.7c0-0.7-0.9-2.2-1.9-3.9c-2.2-3.7-5.2-8.8-5.2-14.5
			c0-7.2,4.8-13.7,10-13.7c1.4,0,3.1,0.7,4.9,1.4c1.8,0.7,3.6,1.4,5,1.4s3.2-0.7,5-1.4c1.8-0.7,3.5-1.4,4.9-1.4
			c5.3,0,10,6.6,10,13.7c0,5.8-3,10.8-5.2,14.5c-1,1.7-1.9,3.2-1.9,3.9l0,3.7c0,0.2-0.1,0.4-0.2,0.6C77.4,68.6,77.2,68.6,77,68.6z
			 M53.9,67h22.3l0-2.8v0c0-1.1,0.9-2.6,2.2-4.7c2.1-3.5,5-8.4,5-13.7c0-6.2-4.1-12.1-8.4-12.1c-1.1,0-2.7,0.6-4.3,1.2
			c-1.9,0.7-3.9,1.5-5.6,1.5c-1.7,0-3.7-0.8-5.6-1.5c-1.6-0.6-3.2-1.2-4.3-1.2c-4.3,0-8.4,5.9-8.4,12.1c0,5.3,2.9,10.1,5,13.7
			c1.3,2.1,2.2,3.6,2.2,4.7V67z"/>
	</g>
	<g>
		<path class="st1" d="M76.3,73.3H53.7c-0.5,0-0.8-0.4-0.8-0.8c0-0.5,0.4-0.8,0.8-0.8h22.6c0.5,0,0.8,0.4,0.8,0.8
			C77.1,72.9,76.8,73.3,76.3,73.3z"/>
	</g>
	<g>
		<path class="st1" d="M76.3,78.2H53.7c-0.5,0-0.8-0.4-0.8-0.8c0-0.5,0.4-0.8,0.8-0.8h22.6c0.5,0,0.8,0.4,0.8,0.8
			C77.1,77.9,76.8,78.2,76.3,78.2z"/>
	</g>
	<g>
		<path class="st1" d="M75.8,83.2H54.2c-0.5,0-0.8-0.4-0.8-0.8c0-0.5,0.4-0.8,0.8-0.8h21.6c0.5,0,0.8,0.4,0.8,0.8
			C76.6,82.8,76.2,83.2,75.8,83.2z"/>
	</g>
	<g>
		<path class="st1" d="M75,88.1H55c-0.5,0-0.8-0.4-0.8-0.8c0-0.5,0.4-0.8,0.8-0.8h20c0.5,0,0.8,0.4,0.8,0.8
			C75.8,87.7,75.5,88.1,75,88.1z"/>
	</g>
	<g>
		<path class="st1" d="M73.4,93.1H56.6c-0.5,0-0.8-0.4-0.8-0.8c0-0.5,0.4-0.8,0.8-0.8h16.8c0.5,0,0.8,0.4,0.8,0.8
			C74.2,92.7,73.9,93.1,73.4,93.1z"/>
	</g>
	<g>
		<path class="st1" d="M70.2,98H59.8c-0.5,0-0.8-0.4-0.8-0.8c0-0.5,0.4-0.8,0.8-0.8h10.5c0.5,0,0.8,0.4,0.8,0.8
			C71.1,97.6,70.7,98,70.2,98z"/>
	</g>
</g>
</svg>
