<?xml version="1.0" encoding="utf-8"?>
<!-- Generator: Adobe Illustrator 21.1.0, SVG Export Plug-In . SVG Version: 6.00 Build 0)  -->
<svg version="1.1" id="Ebene_1" xmlns="https://www.w3.org/2000/svg" xmlns:xlink="https://www.w3.org/1999/xlink" x="0px" y="0px"
	 viewBox="0 0 471 482.8" style="enable-background:new 0 0 471 482.8;" xml:space="preserve">
<style type="text/css">
	.st0{opacity:0.25;fill:none;stroke:#D6D6D6;stroke-miterlimit:10;enable-background:new    ;}
</style>
<title>zahnarztpraxis-wilmersdorfer-arcaden-engin-demirer-main-bg</title>
<path class="st0" d="M238.4,353.9l32.8-2.6c32.7-2.6,56.4-4.3,72.9-5.2c-0.1-7.4-0.2-15-0.2-22.9c-18.5,1.6-40,3.1-62,4
	c-18.7,0.8-32.3,1.3-43.2,1.7C238.6,337.5,238.5,345.8,238.4,353.9 M65.5,374.6c7.3-0.9,53.2-4.3,54-5.8c0.1-0.7-19.7-0.1-53.4,2.4
	c-5,0.5-10.3,0.9-15.2,1.4l-0.7,3.7C55.1,375.8,60.3,375.1,65.5,374.6z M66.7,367.9c9.8-54.5,23.7-112,45.8-163
	c19.4-44.8,32.8-64.5,52-90.3c18.7-25,40.7-37.7,61.7-47.8c16.8-8.1,35.8-9.5,57.3-4.8c36.1,7.9,65.5,41.7,80.3,63.3
	c19.2,28.3,41.2,65.8,61.8,126c28.8,84.6,34.4,131.5,44.7,184.9c0,0-22.3-20.5-35.7-4c-0.8-34.6-3.8-126.8-30.3-201.9
	c-20.5-58.2-34-82.8-50.7-105.4c-15.7-21.4-29.3-34.7-59-42.2c-16.6-4.1-27.1-2.8-40.6,2.7c-16.2,6.6-30.6,16.7-45,35.7
	c-24.4,32.4-44.1,64.3-57.9,110.3c-12.9,43.1-22.2,87.1-27.9,131.8c34.1-2.9,69.8-5.7,100.3-8.1c0.1-8.2,0.2-16.8,0.3-25.7
	c-15.8,0.7-26.7,1.3-47,3.2c-2.9-1.6-0.6-3.7,14.7-5.8c-14.3,0.3-22.8,0.2-22.8-0.3c0-0.7,22.1-2.3,55.2-4
	c0.2-7.5,0.4-15.3,0.6-23.1c2.3-86.5,3.1-299.1,6.9-299.1s5.3,213.4,6.9,299.1c0.1,7.6,0.2,15,0.3,22.3c13.1-0.6,27.4-1.3,42.3-1.9
	c23.3-1,45-1.7,62.9-2.3c0-6.8,0-13.7,0-20.8c0-76.9,2.1-105.9,4.7-105.9s4.7,29,4.7,105.9c0,7,0,13.8,0,20.5
	c8.6-0.2,16-0.4,22.1-0.5c16.8-0.9,26.3-1.4,26.4-0.8s-19.7,3.5-48.5,6.1c0,8-0.1,15.8-0.2,23.2c13.1-0.6,20-0.6,22.3-0.2
	c6.7-0.5,23.9-0.7,35.8-0.5c-4.1-36.3-11.4-76.9-24-113c-18-51.4-33.8-84.6-51.7-107.5c-5.8-7.4-9.4-12.2-13.6-16.8S313,98.4,305,92
	l0.3-1.4c7.4,2.8,14.1,7.2,19.6,12.8c2.8,2.8,5.5,5.8,8,8.9c2.6,3.2,5.4,6.7,8.3,10.4c18,23.1,30.4,48.8,52,107.4
	c13.6,37,21,78,25,114.3c1.6,0,3.2,0.1,4.9,0.3c0,0.3-1.6,0.7-4.7,1.3c4,37.3,4.5,69.4,4.7,86.8l-6.7,1.9v-0.9
	c-0.2-17.3-1-49.5-5.1-86.6c-12.2,1.8-33.1,4.3-58.5,6.7c-0.8,48.2-2.4,81.7-4.3,81.7s-3.5-33.1-4.3-80.9
	c-17.1,1.6-36.1,3.2-56.2,4.8c-13.9,1.1-31,2.5-49.8,4.1c-1.1,49.6-4.6,83.4-7.3,83.4c-1.1,0-0.1-7.7-1.4-15.9
	c-0.6-3.9-5.2,5.5-5.2,5.5c0-12,0.3-26,0-30.7c-0.6-11.5-0.9-25.5-0.9-41c-32.4,2.7-68.4,5.7-101.5,8.4c-3.1,27.1-5,53-6,78.1
	c0,0-63.6,66.1-62.4,3.3c3.1-24,6.8-50,11.4-76.9c-5.4,0.4-10.5,0.8-15.3,1.1c-5,27.3-8.8,53.6-11.6,77.9
	c-0.8,15.6,5.7,22,11.2,24.7h-8.9c-5.1-3.8-8.2-11.5-8.2-24.7c2.8-24.2,6.6-50.4,11.6-77.5c-11.9,0.8-21.2,1.4-26.9,1.5
	c-1.2-1.3,10.9-2.8,27.4-4.5l0.7-3.7c-23.2,2.3-42.6,4-44.4,1.3c-0.3-0.4,17.8-2.1,45-4.5c10.8-55,26.5-113,49.5-164.9
	c20.1-45.4,33.6-65.3,54.1-91.6c20-25.7,34.4-32.4,57.3-43.1l1.1,1c-5.9,3.3-10.7,5.8-15.1,8.4c-4.3,2.4-8.4,5.1-12.3,8.1
	c-7.8,5.9-15.4,13.6-25.4,26.3c-20.4,26.2-33.9,46.1-54,91.3C77.8,257,62.2,314.7,51.5,369.4C56.4,369,61.4,368.4,66.7,367.9
	L66.7,367.9z"/>
</svg>
